<?xml version="1.0" encoding="UTF-8"?>
<svg xmlns="http://www.w3.org/2000/svg" xmlns:xlink="http://www.w3.org/1999/xlink" width="32px" height="32px" viewBox="0 0 32 32" version="1.1">
<g id="surface1">
<path style=" stroke:none;fill-rule:nonzero;fill:rgb(14.117647%,16.078431%,21.960784%);fill-opacity:1;" d="M 7.5 0 L 24.5 0 C 28.640625 0 32 3.359375 32 7.5 L 32 24.5 C 32 28.640625 28.640625 32 24.5 32 L 7.5 32 C 3.359375 32 0 28.640625 0 24.5 L 0 7.5 C 0 3.359375 3.359375 0 7.5 0 Z M 7.5 0 "/>
<path style=" stroke:none;fill-rule:nonzero;fill:rgb(100%,100%,100%);fill-opacity:1;" d="M 10.59375 13.996094 C 10.59375 14.300781 10.625 14.546875 10.683594 14.726562 C 10.75 14.90625 10.832031 15.105469 10.945312 15.320312 C 10.988281 15.386719 11.003906 15.449219 11.003906 15.507812 C 11.003906 15.589844 10.953125 15.671875 10.847656 15.753906 L 10.328125 16.101562 C 10.257812 16.148438 10.183594 16.175781 10.117188 16.175781 C 10.035156 16.175781 9.953125 16.132812 9.871094 16.058594 C 9.753906 15.9375 9.65625 15.804688 9.574219 15.671875 C 9.492188 15.53125 9.410156 15.375 9.320312 15.1875 C 8.675781 15.945312 7.871094 16.324219 6.902344 16.324219 C 6.210938 16.324219 5.660156 16.125 5.257812 15.730469 C 4.851562 15.335938 4.648438 14.808594 4.648438 14.152344 C 4.648438 13.453125 4.894531 12.886719 5.394531 12.457031 C 5.898438 12.03125 6.5625 11.816406 7.410156 11.816406 C 7.691406 11.816406 7.976562 11.839844 8.28125 11.882812 C 8.585938 11.921875 8.898438 11.988281 9.226562 12.0625 L 9.226562 11.460938 C 9.226562 10.835938 9.097656 10.402344 8.839844 10.144531 C 8.578125 9.890625 8.132812 9.769531 7.5 9.769531 C 7.214844 9.769531 6.917969 9.800781 6.613281 9.875 C 6.308594 9.949219 6.011719 10.039062 5.726562 10.15625 C 5.59375 10.210938 5.496094 10.246094 5.4375 10.261719 C 5.378906 10.277344 5.339844 10.285156 5.304688 10.285156 C 5.191406 10.285156 5.132812 10.203125 5.132812 10.03125 L 5.132812 9.628906 C 5.132812 9.496094 5.148438 9.398438 5.191406 9.339844 C 5.230469 9.28125 5.304688 9.226562 5.421875 9.167969 C 5.707031 9.019531 6.054688 8.894531 6.457031 8.796875 C 6.859375 8.691406 7.289062 8.640625 7.738281 8.640625 C 8.71875 8.640625 9.433594 8.863281 9.894531 9.308594 C 10.347656 9.75 10.578125 10.425781 10.578125 11.332031 L 10.578125 13.996094 Z M 7.253906 15.246094 C 7.527344 15.246094 7.804688 15.195312 8.101562 15.097656 C 8.398438 15 8.660156 14.816406 8.882812 14.570312 C 9.015625 14.414062 9.113281 14.242188 9.164062 14.042969 C 9.210938 13.847656 9.246094 13.609375 9.246094 13.328125 L 9.246094 12.984375 C 9.007812 12.925781 8.75 12.875 8.488281 12.84375 C 8.226562 12.8125 7.96875 12.792969 7.714844 12.792969 C 7.164062 12.792969 6.761719 12.902344 6.488281 13.125 C 6.21875 13.34375 6.085938 13.65625 6.085938 14.070312 C 6.085938 14.457031 6.183594 14.742188 6.390625 14.941406 C 6.589844 15.144531 6.875 15.246094 7.253906 15.246094 Z M 13.859375 16.132812 C 13.710938 16.132812 13.609375 16.109375 13.546875 16.050781 C 13.480469 16 13.421875 15.886719 13.371094 15.730469 L 11.441406 9.375 C 11.390625 9.207031 11.367188 9.101562 11.367188 9.042969 C 11.367188 8.914062 11.433594 8.839844 11.5625 8.839844 L 12.371094 8.839844 C 12.527344 8.839844 12.632812 8.863281 12.691406 8.921875 C 12.757812 8.96875 12.804688 9.085938 12.855469 9.242188 L 14.234375 14.6875 L 15.519531 9.242188 C 15.558594 9.078125 15.609375 8.96875 15.675781 8.921875 C 15.742188 8.871094 15.855469 8.839844 16.003906 8.839844 L 16.664062 8.839844 C 16.820312 8.839844 16.925781 8.863281 16.992188 8.921875 C 17.058594 8.96875 17.113281 9.085938 17.148438 9.242188 L 18.445312 14.75 L 19.871094 9.242188 C 19.917969 9.078125 19.976562 8.96875 20.035156 8.921875 C 20.101562 8.871094 20.207031 8.839844 20.355469 8.839844 L 21.121094 8.839844 C 21.25 8.839844 21.324219 8.90625 21.324219 9.042969 C 21.324219 9.085938 21.316406 9.125 21.308594 9.175781 C 21.300781 9.226562 21.285156 9.292969 21.25 9.382812 L 19.269531 15.738281 C 19.21875 15.902344 19.164062 16.011719 19.097656 16.058594 C 19.03125 16.109375 18.921875 16.140625 18.785156 16.140625 L 18.078125 16.140625 C 17.921875 16.140625 17.8125 16.117188 17.746094 16.058594 C 17.683594 16 17.625 15.894531 17.589844 15.730469 L 16.316406 10.425781 L 15.050781 15.722656 C 15.007812 15.886719 14.960938 15.992188 14.894531 16.050781 C 14.828125 16.109375 14.714844 16.132812 14.566406 16.132812 Z M 24.425781 16.355469 C 23.996094 16.355469 23.570312 16.304688 23.160156 16.207031 C 22.746094 16.109375 22.425781 16 22.214844 15.878906 C 22.082031 15.804688 21.992188 15.722656 21.957031 15.648438 C 21.925781 15.574219 21.910156 15.492188 21.910156 15.417969 L 21.910156 15 C 21.910156 14.824219 21.976562 14.742188 22.097656 14.742188 C 22.148438 14.742188 22.195312 14.75 22.246094 14.769531 C 22.296875 14.785156 22.371094 14.816406 22.453125 14.851562 C 22.730469 14.972656 23.035156 15.074219 23.355469 15.136719 C 23.683594 15.203125 24.007812 15.238281 24.335938 15.238281 C 24.851562 15.238281 25.257812 15.144531 25.535156 14.964844 C 25.816406 14.785156 25.964844 14.519531 25.964844 14.183594 C 25.964844 13.953125 25.890625 13.765625 25.742188 13.609375 C 25.59375 13.453125 25.3125 13.3125 24.910156 13.179688 L 23.71875 12.8125 C 23.117188 12.621094 22.671875 12.34375 22.402344 11.972656 C 22.132812 11.609375 21.992188 11.207031 21.992188 10.78125 C 21.992188 10.433594 22.066406 10.128906 22.214844 9.867188 C 22.359375 9.605469 22.558594 9.375 22.804688 9.191406 C 23.050781 9.003906 23.332031 8.863281 23.660156 8.765625 C 23.988281 8.667969 24.335938 8.625 24.695312 8.625 C 24.878906 8.625 25.066406 8.632812 25.246094 8.65625 C 25.4375 8.683594 25.609375 8.714844 25.78125 8.75 C 25.945312 8.789062 26.101562 8.832031 26.25 8.878906 C 26.398438 8.929688 26.515625 8.980469 26.597656 9.027344 C 26.710938 9.09375 26.792969 9.160156 26.84375 9.234375 C 26.890625 9.300781 26.917969 9.390625 26.917969 9.503906 L 26.917969 9.890625 C 26.917969 10.0625 26.851562 10.15625 26.726562 10.15625 C 26.664062 10.15625 26.554688 10.121094 26.414062 10.054688 C 25.945312 9.84375 25.421875 9.734375 24.835938 9.734375 C 24.367188 9.734375 23.996094 9.808594 23.742188 9.964844 C 23.488281 10.121094 23.355469 10.359375 23.355469 10.699219 C 23.355469 10.925781 23.4375 11.125 23.601562 11.28125 C 23.765625 11.4375 24.070312 11.59375 24.507812 11.734375 L 25.675781 12.105469 C 26.265625 12.292969 26.695312 12.554688 26.949219 12.894531 C 27.203125 13.230469 27.328125 13.617188 27.328125 14.042969 C 27.328125 14.398438 27.253906 14.71875 27.113281 15 C 26.964844 15.277344 26.769531 15.523438 26.515625 15.722656 C 26.257812 15.925781 25.953125 16.074219 25.601562 16.183594 C 25.230469 16.296875 24.84375 16.355469 24.425781 16.355469 Z M 24.425781 16.355469 "/>
<path style=" stroke:none;fill-rule:evenodd;fill:rgb(100%,60%,0%);fill-opacity:1;" d="M 25.980469 20.351562 C 23.273438 22.351562 19.34375 23.410156 15.964844 23.410156 C 11.226562 23.410156 6.957031 21.660156 3.734375 18.75 C 3.480469 18.519531 3.710938 18.207031 4.015625 18.386719 C 7.5 20.410156 11.800781 21.636719 16.25 21.636719 C 19.253906 21.636719 22.550781 21.011719 25.585938 19.726562 C 26.039062 19.519531 26.421875 20.023438 25.980469 20.351562 Z M 25.980469 20.351562 "/>
<path style=" stroke:none;fill-rule:evenodd;fill:rgb(100%,60%,0%);fill-opacity:1;" d="M 27.105469 19.070312 C 26.761719 18.625 24.820312 18.855469 23.941406 18.960938 C 23.675781 18.996094 23.636719 18.765625 23.875 18.59375 C 25.421875 17.507812 27.960938 17.820312 28.257812 18.179688 C 28.554688 18.550781 28.175781 21.09375 26.726562 22.308594 C 26.507812 22.5 26.292969 22.398438 26.390625 22.152344 C 26.71875 21.339844 27.453125 19.503906 27.105469 19.070312 Z M 27.105469 19.070312 "/>
</g>
</svg>
