<?xml version="1.0" encoding="UTF-8"?>
<svg xmlns="http://www.w3.org/2000/svg" xmlns:xlink="http://www.w3.org/1999/xlink" width="32px" height="32px" viewBox="0 0 32 32" version="1.1">
<g id="surface1">
<path style=" stroke:none;fill-rule:nonzero;fill:rgb(14.117647%,16.078431%,21.960784%);fill-opacity:1;" d="M 7.5 0 L 24.5 0 C 28.640625 0 32 3.359375 32 7.5 L 32 24.5 C 32 28.640625 28.640625 32 24.5 32 L 7.5 32 C 3.359375 32 0 28.640625 0 24.5 L 0 7.5 C 0 3.359375 3.359375 0 7.5 0 Z M 7.5 0 "/>
<path style=" stroke:none;fill-rule:evenodd;fill:rgb(14.117647%,16.078431%,21.960784%);fill-opacity:1;" d="M 25.476562 8.605469 L 17.585938 3.917969 C 16.644531 3.359375 15.480469 3.359375 14.539062 3.917969 L 6.648438 8.605469 C 5.707031 9.164062 5.125 10.195312 5.125 11.316406 L 5.125 20.683594 C 5.125 21.804688 5.707031 22.835938 6.648438 23.398438 L 14.539062 28.082031 C 15.011719 28.359375 15.535156 28.5 16.0625 28.5 C 16.589844 28.5 17.113281 28.359375 17.585938 28.082031 L 25.476562 23.398438 C 26.417969 22.835938 27 21.804688 27 20.683594 L 27 11.316406 C 27 10.195312 26.417969 9.164062 25.476562 8.605469 Z M 25.476562 8.605469 "/>
<path style=" stroke:none;fill-rule:evenodd;fill:rgb(100%,100%,100%);fill-opacity:1;" d="M 14.816406 27.601562 L 6.921875 22.917969 C 6.152344 22.457031 5.671875 21.601562 5.671875 20.683594 L 5.671875 11.316406 C 5.671875 10.398438 6.152344 9.542969 6.921875 9.085938 L 14.816406 4.398438 C 15.195312 4.175781 15.625 4.054688 16.0625 4.054688 C 16.5 4.054688 16.929688 4.175781 17.308594 4.398438 L 25.203125 9.085938 C 25.851562 9.46875 26.289062 10.140625 26.414062 10.890625 C 26.152344 10.332031 25.5625 10.179688 24.875 10.582031 L 17.40625 15.191406 C 16.476562 15.738281 15.789062 16.347656 15.789062 17.46875 L 15.789062 26.671875 C 15.789062 27.34375 16.058594 27.777344 16.476562 27.902344 C 16.339844 27.929688 16.203125 27.945312 16.0625 27.945312 C 15.625 27.945312 15.195312 27.824219 14.816406 27.601562 Z M 25.476562 8.605469 L 17.585938 3.917969 C 17.113281 3.640625 16.589844 3.5 16.0625 3.5 C 15.535156 3.5 15.011719 3.640625 14.539062 3.917969 L 6.648438 8.605469 C 5.707031 9.164062 5.125 10.195312 5.125 11.316406 L 5.125 20.683594 C 5.125 21.804688 5.707031 22.835938 6.648438 23.394531 L 14.539062 28.082031 C 15.011719 28.359375 15.535156 28.5 16.0625 28.5 C 16.589844 28.5 17.113281 28.359375 17.585938 28.082031 L 25.476562 23.394531 C 26.417969 22.835938 27 21.804688 27 20.683594 L 27 11.316406 C 27 10.195312 26.417969 9.164062 25.476562 8.605469 Z M 25.476562 8.605469 "/>
<path style=" stroke:none;fill-rule:evenodd;fill:rgb(27.843137%,70.196078%,32.54902%);fill-opacity:1;" d="M 23.410156 21.589844 L 21.441406 22.765625 C 21.390625 22.796875 21.351562 22.832031 21.351562 22.894531 L 21.351562 23.410156 C 21.351562 23.472656 21.394531 23.496094 21.445312 23.46875 L 23.441406 22.253906 C 23.496094 22.222656 23.503906 22.164062 23.503906 22.101562 L 23.503906 21.648438 C 23.503906 21.585938 23.460938 21.5625 23.410156 21.589844 Z M 23.410156 21.589844 "/>
<path style=" stroke:none;fill-rule:evenodd;fill:rgb(14.117647%,16.078431%,21.960784%);fill-opacity:1;" d="M 19.222656 17.261719 C 19.289062 17.230469 19.339844 17.269531 19.339844 17.351562 L 19.347656 18.03125 C 19.632812 17.917969 19.878906 17.890625 20.101562 17.941406 C 20.152344 17.953125 20.171875 18.019531 20.152344 18.097656 L 20.003906 18.699219 C 19.992188 18.746094 19.964844 18.792969 19.933594 18.820312 C 19.921875 18.835938 19.910156 18.84375 19.894531 18.851562 C 19.875 18.859375 19.855469 18.863281 19.835938 18.859375 C 19.734375 18.835938 19.492188 18.785156 19.109375 18.976562 C 18.707031 19.179688 18.566406 19.53125 18.570312 19.789062 C 18.574219 20.097656 18.730469 20.191406 19.28125 20.199219 C 20.007812 20.210938 20.324219 20.53125 20.332031 21.265625 C 20.339844 21.988281 19.953125 22.761719 19.363281 23.234375 L 19.378906 23.910156 C 19.378906 23.988281 19.324219 24.082031 19.261719 24.113281 L 18.863281 24.34375 C 18.800781 24.375 18.746094 24.335938 18.746094 24.257812 L 18.738281 23.59375 C 18.398438 23.734375 18.050781 23.769531 17.832031 23.679688 C 17.789062 23.664062 17.773438 23.605469 17.789062 23.535156 L 17.933594 22.925781 C 17.945312 22.878906 17.96875 22.828125 18.003906 22.796875 C 18.015625 22.785156 18.027344 22.777344 18.042969 22.769531 C 18.066406 22.757812 18.085938 22.757812 18.105469 22.765625 C 18.34375 22.84375 18.648438 22.808594 18.941406 22.660156 C 19.3125 22.46875 19.5625 22.089844 19.558594 21.714844 C 19.554688 21.371094 19.371094 21.230469 18.917969 21.226562 C 18.347656 21.226562 17.8125 21.113281 17.804688 20.269531 C 17.796875 19.578125 18.15625 18.851562 18.730469 18.394531 L 18.722656 17.71875 C 18.722656 17.632812 18.773438 17.542969 18.835938 17.507812 Z M 19.222656 17.261719 "/>
</g>
</svg>
