<?xml version="1.0" encoding="UTF-8"?>
<svg xmlns="http://www.w3.org/2000/svg" xmlns:xlink="http://www.w3.org/1999/xlink" width="32px" height="32px" viewBox="0 0 32 32" version="1.1">
<g id="surface1">
<path style=" stroke:none;fill-rule:nonzero;fill:rgb(13.72549%,58.823529%,92.941176%);fill-opacity:1;" d="M 7.5 0 L 24.5 0 C 28.640625 0 32 3.359375 32 7.5 L 32 24.5 C 32 28.640625 28.640625 32 24.5 32 L 7.5 32 C 3.359375 32 0 28.640625 0 24.5 L 0 7.5 C 0 3.359375 3.359375 0 7.5 0 Z M 7.5 0 "/>
<path style=" stroke:none;fill-rule:nonzero;fill:rgb(100%,100%,100%);fill-opacity:1;" d="M 17.648438 15.265625 L 20.238281 15.265625 L 20.238281 12.921875 L 17.648438 12.921875 Z M 14.566406 15.265625 L 17.15625 15.265625 L 17.15625 12.921875 L 14.566406 12.921875 Z M 11.542969 15.265625 L 14.132812 15.265625 L 14.132812 12.921875 L 11.542969 12.921875 Z M 8.523438 15.265625 L 11.050781 15.265625 L 11.050781 12.921875 L 8.523438 12.921875 Z M 5.441406 15.265625 L 8.03125 15.265625 L 8.03125 12.921875 L 5.441406 12.921875 Z M 8.523438 12.429688 L 11.050781 12.429688 L 11.050781 10.085938 L 8.523438 10.085938 Z M 11.542969 12.429688 L 14.132812 12.429688 L 14.132812 10.085938 L 11.542969 10.085938 Z M 14.566406 12.429688 L 17.15625 12.429688 L 17.15625 10.085938 L 14.566406 10.085938 Z M 14.566406 9.59375 L 17.15625 9.59375 L 17.15625 7.25 L 14.566406 7.25 Z M 28.5 14.21875 C 28.5 14.21875 27.390625 13.167969 25.109375 13.539062 C 24.863281 11.75 22.949219 10.703125 22.949219 10.703125 C 22.949219 10.703125 21.164062 12.859375 22.457031 15.265625 C 22.085938 15.449219 21.472656 15.695312 20.546875 15.695312 L 3.589844 15.695312 C 3.28125 16.867188 3.28125 24.636719 11.792969 24.636719 C 17.894531 24.636719 22.457031 21.800781 24.617188 16.621094 C 27.820312 16.867188 28.5 14.21875 28.5 14.21875 Z M 28.5 14.21875 "/>
</g>
</svg>
