<?xml version="1.0" encoding="UTF-8"?>
<svg xmlns="http://www.w3.org/2000/svg" xmlns:xlink="http://www.w3.org/1999/xlink" width="32px" height="32px" viewBox="0 0 32 32" version="1.1">
<g id="surface1">
<path style=" stroke:none;fill-rule:nonzero;fill:rgb(14.117647%,16.078431%,21.960784%);fill-opacity:1;" d="M 7.5 0 L 24.5 0 C 28.640625 0 32 3.359375 32 7.5 L 32 24.5 C 32 28.640625 28.640625 32 24.5 32 L 7.5 32 C 3.359375 32 0 28.640625 0 24.5 L 0 7.5 C 0 3.359375 3.359375 0 7.5 0 Z M 7.5 0 "/>
<path style=" stroke:none;fill-rule:nonzero;fill:rgb(100%,100%,100%);fill-opacity:1;" d="M 28.5 22.867188 C 28.136719 23.003906 27.734375 23.003906 27.371094 22.867188 C 27.007812 22.726562 26.707031 22.460938 26.527344 22.117188 C 25.394531 20.421875 24.140625 18.800781 22.941406 17.148438 L 22.417969 16.453125 C 20.988281 18.371094 19.554688 20.210938 18.25 22.125 C 18.078125 22.453125 17.792969 22.710938 17.449219 22.84375 C 17.101562 22.980469 16.722656 22.984375 16.371094 22.859375 L 21.746094 15.652344 L 16.746094 9.140625 C 17.105469 9.011719 17.5 9.007812 17.859375 9.136719 C 18.222656 9.261719 18.527344 9.507812 18.726562 9.835938 C 19.886719 11.53125 21.175781 13.152344 22.453125 14.867188 C 23.738281 13.164062 25.011719 11.539062 26.199219 9.855469 C 26.371094 9.53125 26.65625 9.28125 27 9.152344 C 27.34375 9.027344 27.71875 9.027344 28.0625 9.160156 L 26.121094 11.734375 C 25.253906 12.878906 24.398438 14.035156 23.496094 15.152344 C 23.421875 15.21875 23.363281 15.296875 23.324219 15.386719 C 23.285156 15.476562 23.265625 15.574219 23.265625 15.671875 C 23.265625 15.769531 23.285156 15.863281 23.324219 15.953125 C 23.363281 16.042969 23.421875 16.121094 23.496094 16.1875 C 25.15625 18.390625 26.804688 20.601562 28.5 22.867188 Z M 28.5 22.867188 "/>
<path style=" stroke:none;fill-rule:nonzero;fill:rgb(100%,100%,100%);fill-opacity:1;" d="M 3.5 15.5625 C 3.644531 14.867188 3.734375 14.109375 3.9375 13.402344 C 5.140625 9.125 10.039062 7.347656 13.410156 9.996094 C 15.386719 11.546875 15.878906 13.742188 15.78125 16.214844 L 4.660156 16.214844 C 4.480469 20.636719 7.671875 23.304688 11.75 21.941406 C 12.410156 21.707031 13.003906 21.308594 13.472656 20.785156 C 13.945312 20.261719 14.273438 19.628906 14.441406 18.945312 C 14.65625 18.253906 15.003906 18.132812 15.664062 18.335938 C 15.554688 19.183594 15.253906 19.992188 14.789062 20.707031 C 14.320312 21.421875 13.699219 22.019531 12.964844 22.457031 C 11.757812 23.117188 10.371094 23.378906 9.003906 23.207031 C 7.636719 23.03125 6.359375 22.429688 5.355469 21.484375 C 4.363281 20.367188 3.761719 18.957031 3.644531 17.46875 C 3.644531 17.230469 3.554688 16.996094 3.507812 16.773438 C 3.503906 16.359375 3.5 15.957031 3.5 15.5625 Z M 4.675781 15.261719 L 14.730469 15.261719 C 14.667969 12.058594 12.648438 9.785156 9.949219 9.765625 C 6.949219 9.722656 4.800781 11.949219 4.667969 15.25 Z M 4.675781 15.261719 "/>
</g>
</svg>
