<?xml version="1.0" encoding="UTF-8"?>
<svg xmlns="http://www.w3.org/2000/svg" xmlns:xlink="http://www.w3.org/1999/xlink" width="32px" height="32px" viewBox="0 0 32 32" version="1.1">
<defs>
<clipPath id="clip1">
  <path d="M 3.5 3.5 L 28.5 3.5 L 28.5 28.5 L 3.5 28.5 Z M 3.5 3.5 "/>
</clipPath>
</defs>
<g id="surface1">
<path style=" stroke:none;fill-rule:nonzero;fill:rgb(94.117647%,23.529412%,18.039216%);fill-opacity:1;" d="M 7.5 0 L 24.5 0 C 28.640625 0 32 3.359375 32 7.5 L 32 24.5 C 32 28.640625 28.640625 32 24.5 32 L 7.5 32 C 3.359375 32 0 28.640625 0 24.5 L 0 7.5 C 0 3.359375 3.359375 0 7.5 0 Z M 7.5 0 "/>
<g clip-path="url(#clip1)" clip-rule="nonzero">
<path style=" stroke:none;fill-rule:nonzero;fill:rgb(100%,100%,100%);fill-opacity:1;" d="M 28.027344 14.886719 L 17.113281 3.972656 C 16.964844 3.824219 16.785156 3.703125 16.589844 3.621094 C 16.394531 3.542969 16.1875 3.5 15.976562 3.5 C 15.761719 3.5 15.554688 3.542969 15.359375 3.621094 C 15.164062 3.703125 14.984375 3.824219 14.835938 3.972656 L 12.570312 6.238281 L 15.445312 9.113281 C 16.113281 8.878906 16.878906 9.039062 17.414062 9.570312 C 17.667969 9.824219 17.84375 10.144531 17.925781 10.496094 C 18.003906 10.84375 17.984375 11.210938 17.867188 11.550781 L 20.636719 14.320312 C 21.308594 14.089844 22.082031 14.238281 22.617188 14.777344 C 22.796875 14.953125 22.9375 15.164062 23.03125 15.398438 C 23.128906 15.628906 23.179688 15.878906 23.179688 16.128906 C 23.179688 16.382812 23.128906 16.632812 23.03125 16.863281 C 22.9375 17.097656 22.792969 17.308594 22.617188 17.484375 C 22.4375 17.664062 22.226562 17.804688 21.996094 17.902344 C 21.761719 17.996094 21.511719 18.046875 21.261719 18.046875 C 21.011719 18.046875 20.761719 17.996094 20.527344 17.902344 C 20.296875 17.804688 20.085938 17.664062 19.90625 17.484375 C 19.34375 16.921875 19.207031 16.09375 19.488281 15.402344 L 16.90625 12.816406 L 16.90625 19.617188 C 17.09375 19.710938 17.265625 19.832031 17.414062 19.980469 C 17.589844 20.160156 17.730469 20.371094 17.828125 20.601562 C 17.925781 20.835938 17.972656 21.082031 17.972656 21.335938 C 17.972656 21.585938 17.925781 21.835938 17.828125 22.066406 C 17.730469 22.300781 17.589844 22.511719 17.414062 22.691406 C 17.234375 22.867188 17.023438 23.007812 16.792969 23.105469 C 16.558594 23.203125 16.308594 23.25 16.058594 23.25 C 15.808594 23.25 15.558594 23.203125 15.324219 23.105469 C 15.09375 23.007812 14.882812 22.867188 14.703125 22.691406 C 14.527344 22.511719 14.382812 22.300781 14.289062 22.070312 C 14.191406 21.835938 14.140625 21.585938 14.140625 21.335938 C 14.140625 21.082031 14.191406 20.835938 14.289062 20.601562 C 14.382812 20.371094 14.527344 20.160156 14.703125 19.980469 C 14.890625 19.796875 15.09375 19.65625 15.332031 19.5625 L 15.332031 12.699219 C 15.101562 12.605469 14.890625 12.464844 14.703125 12.28125 C 14.433594 12.011719 14.253906 11.667969 14.179688 11.296875 C 14.105469 10.921875 14.144531 10.535156 14.292969 10.1875 L 11.457031 7.351562 L 3.972656 14.828125 C 3.820312 14.976562 3.703125 15.15625 3.621094 15.351562 C 3.539062 15.546875 3.5 15.753906 3.5 15.964844 C 3.5 16.179688 3.539062 16.386719 3.621094 16.582031 C 3.703125 16.777344 3.820312 16.957031 3.972656 17.105469 L 14.886719 28.019531 C 15.035156 28.167969 15.214844 28.289062 15.410156 28.367188 C 15.605469 28.449219 15.8125 28.492188 16.023438 28.492188 C 16.238281 28.492188 16.445312 28.449219 16.640625 28.367188 C 16.835938 28.289062 17.015625 28.167969 17.164062 28.019531 L 28.027344 17.171875 C 28.179688 17.023438 28.296875 16.84375 28.378906 16.648438 C 28.457031 16.453125 28.5 16.246094 28.5 16.035156 C 28.5 15.820312 28.457031 15.613281 28.378906 15.417969 C 28.296875 15.222656 28.179688 15.042969 28.027344 14.894531 "/>
</g>
</g>
</svg>
