<?xml version="1.0" encoding="UTF-8"?>
<svg xmlns="http://www.w3.org/2000/svg" xmlns:xlink="http://www.w3.org/1999/xlink" width="32px" height="32px" viewBox="0 0 32 32" version="1.1">
<g id="surface1">
<path style=" stroke:none;fill-rule:nonzero;fill:rgb(14.117647%,16.078431%,21.960784%);fill-opacity:1;" d="M 7.5 0 L 24.5 0 C 28.640625 0 32 3.359375 32 7.5 L 32 24.5 C 32 28.640625 28.640625 32 24.5 32 L 7.5 32 C 3.359375 32 0 28.640625 0 24.5 L 0 7.5 C 0 3.359375 3.359375 0 7.5 0 Z M 7.5 0 "/>
<path style=" stroke:none;fill-rule:nonzero;fill:rgb(100%,100%,100%);fill-opacity:1;" d="M 16 3.75 C 9.097656 3.75 3.5 9.347656 3.5 16.25 C 3.5 21.773438 7.082031 26.457031 12.046875 28.113281 C 12.671875 28.226562 12.902344 27.839844 12.902344 27.511719 C 12.902344 27.210938 12.890625 26.226562 12.886719 25.183594 C 9.40625 25.9375 8.675781 23.707031 8.675781 23.707031 C 8.105469 22.261719 7.285156 21.878906 7.285156 21.878906 C 6.152344 21.101562 7.371094 21.117188 7.371094 21.117188 C 8.625 21.207031 9.289062 22.40625 9.289062 22.40625 C 10.402344 24.316406 12.210938 23.765625 12.925781 23.445312 C 13.039062 22.636719 13.363281 22.085938 13.71875 21.773438 C 10.941406 21.457031 8.023438 20.386719 8.023438 15.597656 C 8.023438 14.234375 8.511719 13.117188 9.3125 12.242188 C 9.183594 11.925781 8.753906 10.65625 9.433594 8.933594 C 9.433594 8.933594 10.484375 8.597656 12.871094 10.214844 C 13.867188 9.9375 14.9375 9.800781 16 9.792969 C 17.0625 9.800781 18.132812 9.9375 19.132812 10.214844 C 21.515625 8.597656 22.566406 8.933594 22.566406 8.933594 C 23.246094 10.65625 22.816406 11.925781 22.6875 12.242188 C 23.488281 13.117188 23.976562 14.234375 23.976562 15.597656 C 23.976562 20.398438 21.050781 21.457031 18.265625 21.765625 C 18.714844 22.152344 19.113281 22.914062 19.113281 24.078125 C 19.113281 25.753906 19.101562 27.097656 19.101562 27.511719 C 19.101562 27.84375 19.324219 28.234375 19.957031 28.109375 C 24.921875 26.453125 28.5 21.769531 28.5 16.25 C 28.5 9.347656 22.902344 3.75 16 3.75 Z M 8.183594 21.554688 C 8.152344 21.617188 8.054688 21.636719 7.96875 21.59375 C 7.875 21.554688 7.824219 21.46875 7.855469 21.40625 C 7.882812 21.34375 7.980469 21.324219 8.070312 21.367188 C 8.160156 21.410156 8.214844 21.496094 8.183594 21.554688 Z M 8.796875 22.105469 C 8.738281 22.160156 8.621094 22.136719 8.542969 22.046875 C 8.460938 21.960938 8.445312 21.84375 8.503906 21.789062 C 8.566406 21.734375 8.679688 21.757812 8.761719 21.84375 C 8.84375 21.933594 8.859375 22.050781 8.796875 22.105469 Z M 9.21875 22.808594 C 9.140625 22.859375 9.015625 22.8125 8.9375 22.699219 C 8.863281 22.589844 8.863281 22.453125 8.941406 22.402344 C 9.019531 22.347656 9.140625 22.394531 9.21875 22.507812 C 9.296875 22.621094 9.296875 22.753906 9.21875 22.808594 Z M 9.933594 23.621094 C 9.863281 23.695312 9.71875 23.675781 9.609375 23.574219 C 9.5 23.472656 9.472656 23.328125 9.539062 23.253906 C 9.609375 23.175781 9.753906 23.199219 9.863281 23.300781 C 9.972656 23.402344 10.003906 23.546875 9.933594 23.621094 Z M 10.855469 23.894531 C 10.824219 23.992188 10.683594 24.039062 10.542969 23.996094 C 10.398438 23.953125 10.308594 23.839844 10.335938 23.738281 C 10.367188 23.640625 10.507812 23.59375 10.648438 23.636719 C 10.789062 23.679688 10.882812 23.796875 10.855469 23.894531 Z M 11.902344 24.011719 C 11.90625 24.113281 11.785156 24.199219 11.636719 24.203125 C 11.488281 24.203125 11.367188 24.121094 11.367188 24.019531 C 11.367188 23.914062 11.484375 23.832031 11.632812 23.828125 C 11.78125 23.824219 11.902344 23.910156 11.902344 24.011719 Z M 12.933594 23.972656 C 12.953125 24.070312 12.847656 24.175781 12.699219 24.203125 C 12.554688 24.230469 12.421875 24.167969 12.402344 24.066406 C 12.386719 23.964844 12.488281 23.859375 12.636719 23.835938 C 12.78125 23.808594 12.914062 23.871094 12.933594 23.972656 Z M 12.933594 23.972656 "/>
</g>
</svg>
