<?xml version="1.0" encoding="UTF-8"?>
<svg xmlns="http://www.w3.org/2000/svg" xmlns:xlink="http://www.w3.org/1999/xlink" width="32px" height="32px" viewBox="0 0 32 32" version="1.1">
<g id="surface1">
<path style=" stroke:none;fill-rule:nonzero;fill:rgb(14.117647%,16.078431%,21.960784%);fill-opacity:1;" d="M 7.5 0 L 24.5 0 C 28.640625 0 32 3.359375 32 7.5 L 32 24.5 C 32 28.640625 28.640625 32 24.5 32 L 7.5 32 C 3.359375 32 0 28.640625 0 24.5 L 0 7.5 C 0 3.359375 3.359375 0 7.5 0 Z M 7.5 0 "/>
<path style=" stroke:none;fill-rule:nonzero;fill:rgb(88.627451%,26.27451%,16.078431%);fill-opacity:1;" d="M 16 27.5 L 20.695312 13.351562 L 11.304688 13.351562 Z M 16 27.5 "/>
<path style=" stroke:none;fill-rule:nonzero;fill:rgb(98.823529%,42.745098%,14.901961%);fill-opacity:1;" d="M 16 27.5 L 11.304688 13.351562 L 4.726562 13.351562 Z M 16 27.5 "/>
<path style=" stroke:none;fill-rule:nonzero;fill:rgb(98.823529%,63.921569%,14.901961%);fill-opacity:1;" d="M 4.726562 13.351562 L 3.296875 17.652344 C 3.167969 18.042969 3.308594 18.472656 3.652344 18.714844 L 16 27.5 Z M 4.726562 13.351562 "/>
<path style=" stroke:none;fill-rule:nonzero;fill:rgb(88.627451%,26.27451%,16.078431%);fill-opacity:1;" d="M 4.726562 13.351562 L 11.304688 13.351562 L 8.476562 4.828125 C 8.332031 4.390625 7.699219 4.390625 7.550781 4.828125 Z M 4.726562 13.351562 "/>
<path style=" stroke:none;fill-rule:nonzero;fill:rgb(98.823529%,42.745098%,14.901961%);fill-opacity:1;" d="M 16 27.5 L 20.695312 13.351562 L 27.277344 13.351562 Z M 16 27.5 "/>
<path style=" stroke:none;fill-rule:nonzero;fill:rgb(98.823529%,63.921569%,14.901961%);fill-opacity:1;" d="M 27.273438 13.351562 L 28.703125 17.652344 C 28.832031 18.042969 28.691406 18.472656 28.347656 18.714844 L 16 27.5 Z M 27.273438 13.351562 "/>
<path style=" stroke:none;fill-rule:nonzero;fill:rgb(88.627451%,26.27451%,16.078431%);fill-opacity:1;" d="M 27.273438 13.351562 L 20.695312 13.351562 L 23.523438 4.828125 C 23.667969 4.390625 24.300781 4.390625 24.449219 4.828125 L 27.277344 13.351562 Z M 27.273438 13.351562 "/>
</g>
</svg>
