<?xml version="1.0" encoding="UTF-8"?>
<svg xmlns="http://www.w3.org/2000/svg" xmlns:xlink="http://www.w3.org/1999/xlink" width="32px" height="32px" viewBox="0 0 32 32" version="1.1">
<defs>
<linearGradient id="linear0" gradientUnits="userSpaceOnUse" x1="30.256" y1="142.541" x2="123.192" y2="142.541" gradientTransform="matrix(0.125,0,0,0.125,0,0)">
<stop offset="0.258" style="stop-color:rgb(97.647059%,47.843137%,7.058824%);stop-opacity:1;"/>
<stop offset="0.459" style="stop-color:rgb(69.019608%,48.235294%,34.509804%);stop-opacity:1;"/>
<stop offset="0.724" style="stop-color:rgb(34.117647%,48.235294%,68.235294%);stop-opacity:1;"/>
<stop offset="0.91" style="stop-color:rgb(11.764706%,48.627451%,89.803922%);stop-opacity:1;"/>
<stop offset="1" style="stop-color:rgb(3.137255%,48.627451%,98.039216%);stop-opacity:1;"/>
</linearGradient>
<linearGradient id="linear1" gradientUnits="userSpaceOnUse" x1="101.621" y1="99.086" x2="254.926" y2="183.914" gradientTransform="matrix(0.125,0,0,0.125,0,0)">
<stop offset="0" style="stop-color:rgb(97.647059%,47.843137%,7.058824%);stop-opacity:1;"/>
<stop offset="0.072" style="stop-color:rgb(79.607843%,47.843137%,24.313725%);stop-opacity:1;"/>
<stop offset="0.154" style="stop-color:rgb(61.960784%,48.235294%,41.568627%);stop-opacity:1;"/>
<stop offset="0.242" style="stop-color:rgb(45.882353%,48.235294%,56.862745%);stop-opacity:1;"/>
<stop offset="0.334" style="stop-color:rgb(32.54902%,48.235294%,69.411765%);stop-opacity:1;"/>
<stop offset="0.432" style="stop-color:rgb(21.960784%,48.627451%,80%);stop-opacity:1;"/>
<stop offset="0.538" style="stop-color:rgb(13.72549%,48.627451%,87.843137%);stop-opacity:1;"/>
<stop offset="0.655" style="stop-color:rgb(7.843137%,48.627451%,93.72549%);stop-opacity:1;"/>
<stop offset="0.792" style="stop-color:rgb(4.313725%,48.627451%,96.862745%);stop-opacity:1;"/>
<stop offset="1" style="stop-color:rgb(3.137255%,48.627451%,98.039216%);stop-opacity:1;"/>
</linearGradient>
<linearGradient id="linear2" gradientUnits="userSpaceOnUse" x1="208.651" y1="150.615" x2="165.972" y2="23.088" gradientTransform="matrix(0.125,0,0,0.125,0,0)">
<stop offset="0" style="stop-color:rgb(99.607843%,19.215686%,36.470588%);stop-opacity:1;"/>
<stop offset="0.078" style="stop-color:rgb(79.607843%,25.490196%,49.411765%);stop-opacity:1;"/>
<stop offset="0.16" style="stop-color:rgb(61.960784%,30.588235%,60.784314%);stop-opacity:1;"/>
<stop offset="0.247" style="stop-color:rgb(45.882353%,35.686275%,70.588235%);stop-opacity:1;"/>
<stop offset="0.339" style="stop-color:rgb(32.54902%,39.607843%,79.215686%);stop-opacity:1;"/>
<stop offset="0.436" style="stop-color:rgb(21.960784%,42.745098%,85.882353%);stop-opacity:1;"/>
<stop offset="0.541" style="stop-color:rgb(13.72549%,45.490196%,91.372549%);stop-opacity:1;"/>
<stop offset="0.658" style="stop-color:rgb(7.843137%,47.058824%,95.294118%);stop-opacity:1;"/>
<stop offset="0.794" style="stop-color:rgb(4.313725%,48.235294%,97.254902%);stop-opacity:1;"/>
<stop offset="1" style="stop-color:rgb(3.137255%,48.627451%,98.039216%);stop-opacity:1;"/>
</linearGradient>
<linearGradient id="linear3" gradientUnits="userSpaceOnUse" x1="58.63" y1="75.066" x2="186.639" y2="286.8" gradientTransform="matrix(0.125,0,0,0.125,0,0)">
<stop offset="0" style="stop-color:rgb(99.607843%,19.215686%,36.470588%);stop-opacity:1;"/>
<stop offset="0.04" style="stop-color:rgb(96.470588%,20.392157%,38.431373%);stop-opacity:1;"/>
<stop offset="0.104" style="stop-color:rgb(87.45098%,22.745098%,44.313725%);stop-opacity:1;"/>
<stop offset="0.167" style="stop-color:rgb(76.078431%,26.27451%,51.372549%);stop-opacity:1;"/>
<stop offset="0.291" style="stop-color:rgb(67.843137%,29.019608%,56.862745%);stop-opacity:1;"/>
<stop offset="0.55" style="stop-color:rgb(45.882353%,35.686275%,70.588235%);stop-opacity:1;"/>
<stop offset="0.917" style="stop-color:rgb(11.372549%,46.27451%,92.941176%);stop-opacity:1;"/>
<stop offset="1" style="stop-color:rgb(3.137255%,48.627451%,98.039216%);stop-opacity:1;"/>
</linearGradient>
</defs>
<g id="surface1">
<path style=" stroke:none;fill-rule:nonzero;fill:rgb(14.117647%,16.078431%,21.960784%);fill-opacity:1;" d="M 7.5 0 L 24.5 0 C 28.640625 0 32 3.359375 32 7.5 L 32 24.5 C 32 28.640625 28.640625 32 24.5 32 L 7.5 32 C 3.359375 32 0 28.640625 0 24.5 L 0 7.5 C 0 3.359375 3.359375 0 7.5 0 Z M 7.5 0 "/>
<path style=" stroke:none;fill-rule:nonzero;fill:url(#linear0);" d="M 9.820312 23 L 3.785156 18.214844 L 6.785156 12.644531 L 15.394531 16 Z M 9.820312 23 "/>
<path style=" stroke:none;fill-rule:nonzero;fill:url(#linear1);" d="M 28.5 10.179688 L 28.035156 24.644531 L 18.429688 28.5 L 12.644531 24.785156 L 21.105469 16 L 17.394531 7.894531 L 20.714844 3.894531 Z M 28.5 10.179688 "/>
<path style=" stroke:none;fill-rule:nonzero;fill:url(#linear2);" d="M 28.5 10.179688 L 20.894531 19.179688 L 17.394531 7.894531 L 20.714844 3.894531 Z M 28.5 10.179688 "/>
<path style=" stroke:none;fill-rule:nonzero;fill:url(#linear3);" d="M 15.535156 24.25 L 5.5 27.894531 L 7.105469 22.25 L 9.214844 15.320312 L 3.5 13.394531 L 7.105469 3.5 L 14.964844 4.464844 L 22.679688 13.285156 Z M 15.535156 24.25 "/>
<path style=" stroke:none;fill-rule:nonzero;fill:rgb(0%,0%,0%);fill-opacity:1;" d="M 23.820312 8.320312 L 8.394531 8.320312 L 8.394531 23.75 L 23.820312 23.75 Z M 23.820312 8.320312 "/>
<path style=" stroke:none;fill-rule:nonzero;fill:rgb(100%,100%,100%);fill-opacity:1;" d="M 15.605469 20.855469 L 9.820312 20.855469 L 9.820312 21.820312 L 15.605469 21.820312 Z M 15.605469 20.855469 "/>
<path style=" stroke:none;fill-rule:nonzero;fill:rgb(100%,100%,100%);fill-opacity:1;" d="M 14 11.5 L 14 10.320312 L 10.785156 10.320312 L 10.785156 11.5 L 11.714844 11.5 L 11.714844 15.535156 L 10.785156 15.535156 L 10.785156 16.714844 L 14 16.714844 L 14 15.535156 L 13.105469 15.535156 L 13.105469 11.5 Z M 14 11.5 "/>
<path style=" stroke:none;fill-rule:nonzero;fill:rgb(100%,100%,100%);fill-opacity:1;" d="M 17.070312 16.820312 C 16.570312 16.820312 16.144531 16.714844 15.820312 16.535156 C 15.5 16.355469 15.214844 16.105469 15 15.855469 L 15.894531 14.855469 C 16.070312 15.070312 16.25 15.214844 16.429688 15.320312 C 16.605469 15.429688 16.820312 15.5 17.035156 15.5 C 17.285156 15.5 17.5 15.429688 17.679688 15.25 C 17.820312 15.070312 17.894531 14.820312 17.894531 14.429688 L 17.894531 10.320312 L 19.320312 10.320312 L 19.320312 14.5 C 19.320312 14.894531 19.285156 15.214844 19.179688 15.5 C 19.070312 15.785156 18.929688 16 18.714844 16.214844 C 18.535156 16.394531 18.285156 16.570312 18 16.644531 C 17.714844 16.75 17.429688 16.820312 17.070312 16.820312 Z M 17.070312 16.820312 "/>
</g>
</svg>
