<?xml version="1.0" encoding="UTF-8"?>
<svg xmlns="http://www.w3.org/2000/svg" xmlns:xlink="http://www.w3.org/1999/xlink" width="32px" height="32px" viewBox="0 0 32 32" version="1.1">
<g id="surface1">
<path style=" stroke:none;fill-rule:nonzero;fill:rgb(14.117647%,16.078431%,21.960784%);fill-opacity:1;" d="M 7.5 0 L 24.5 0 C 28.640625 0 32 3.359375 32 7.5 L 32 24.5 C 32 28.640625 28.640625 32 24.5 32 L 7.5 32 C 3.359375 32 0 28.640625 0 24.5 L 0 7.5 C 0 3.359375 3.359375 0 7.5 0 Z M 7.5 0 "/>
<path style=" stroke:none;fill-rule:nonzero;fill:rgb(100%,100%,100%);fill-opacity:1;" d="M 12.703125 22.828125 C 12.703125 22.828125 11.746094 23.410156 13.371094 23.578125 C 15.339844 23.828125 16.378906 23.789062 18.546875 23.371094 C 18.546875 23.371094 19.132812 23.746094 19.925781 24.039062 C 15.042969 26.125 8.863281 23.914062 12.703125 22.828125 Z M 12.078125 20.113281 C 12.078125 20.113281 11.035156 20.90625 12.664062 21.074219 C 14.789062 21.28125 16.460938 21.324219 19.339844 20.742188 C 19.339844 20.742188 19.71875 21.160156 20.34375 21.367188 C 14.457031 23.121094 7.863281 21.535156 12.078125 20.113281 Z M 23.597656 24.871094 C 23.597656 24.871094 24.308594 25.457031 22.804688 25.917969 C 20.007812 26.75 11.078125 27.003906 8.570312 25.917969 C 7.695312 25.539062 9.363281 24.996094 9.90625 24.914062 C 10.449219 24.789062 10.742188 24.789062 10.742188 24.789062 C 9.78125 24.121094 4.355469 26.167969 7.988281 26.753906 C 17.964844 28.382812 26.1875 26.046875 23.597656 24.878906 Z M 13.164062 17.273438 C 13.164062 17.273438 8.613281 18.359375 11.535156 18.734375 C 12.789062 18.902344 15.25 18.863281 17.546875 18.695312 C 19.425781 18.527344 21.308594 18.195312 21.308594 18.195312 C 21.308594 18.195312 20.640625 18.484375 20.179688 18.777344 C 15.542969 19.988281 6.652344 19.445312 9.199219 18.195312 C 11.367188 17.152344 13.164062 17.273438 13.164062 17.273438 Z M 21.304688 21.824219 C 25.980469 19.402344 23.808594 17.066406 22.304688 17.359375 C 21.929688 17.441406 21.761719 17.527344 21.761719 17.527344 C 21.761719 17.527344 21.886719 17.273438 22.179688 17.191406 C 25.144531 16.148438 27.480469 20.324219 21.21875 21.953125 C 21.21875 21.953125 21.261719 21.910156 21.304688 21.824219 Z M 13.621094 28.421875 C 18.128906 28.710938 25.019531 28.253906 25.183594 26.125 C 25.183594 26.125 24.851562 26.960938 21.46875 27.585938 C 17.628906 28.292969 12.871094 28.210938 10.074219 27.753906 C 10.074219 27.753906 10.660156 28.253906 13.621094 28.421875 Z M 13.621094 28.421875 "/>
<path style=" stroke:none;fill-rule:nonzero;fill:rgb(96.078431%,50.980392%,9.803922%);fill-opacity:1;" d="M 18.460938 3.5 C 18.460938 3.5 21.046875 6.128906 15.996094 10.09375 C 11.949219 13.308594 15.078125 15.144531 15.996094 17.234375 C 13.617188 15.105469 11.90625 13.226562 13.074219 11.472656 C 14.792969 8.886719 19.507812 7.632812 18.460938 3.5 Z M 17.125 15.480469 C 18.335938 16.859375 16.792969 18.109375 16.792969 18.109375 C 16.792969 18.109375 19.878906 16.523438 18.460938 14.5625 C 17.167969 12.683594 16.164062 11.765625 21.59375 8.632812 C 21.59375 8.632812 13.035156 10.761719 17.125 15.480469 Z M 17.125 15.480469 "/>
</g>
</svg>
