<?xml version="1.0" encoding="UTF-8"?>
<svg xmlns="http://www.w3.org/2000/svg" xmlns:xlink="http://www.w3.org/1999/xlink" width="32px" height="32px" viewBox="0 0 32 32" version="1.1">
<g id="surface1">
<path style=" stroke:none;fill-rule:nonzero;fill:rgb(94.117647%,85.882353%,30.980392%);fill-opacity:1;" d="M 7.5 0 L 24.5 0 C 28.640625 0 32 3.359375 32 7.5 L 32 24.5 C 32 28.640625 28.640625 32 24.5 32 L 7.5 32 C 3.359375 32 0 28.640625 0 24.5 L 0 7.5 C 0 3.359375 3.359375 0 7.5 0 Z M 7.5 0 "/>
<path style=" stroke:none;fill-rule:nonzero;fill:rgb(19.607843%,20%,18.823529%);fill-opacity:1;" d="M 8.414062 26.742188 L 10.863281 25.257812 C 11.335938 26.097656 11.765625 26.804688 12.796875 26.804688 C 13.785156 26.804688 14.40625 26.417969 14.40625 24.914062 L 14.40625 14.691406 L 17.414062 14.691406 L 17.414062 24.957031 C 17.414062 28.074219 15.589844 29.492188 12.925781 29.492188 C 10.519531 29.492188 9.121094 28.246094 8.414062 26.742188 "/>
<path style=" stroke:none;fill-rule:nonzero;fill:rgb(19.607843%,20%,18.823529%);fill-opacity:1;" d="M 19.046875 26.417969 L 21.496094 25 C 22.140625 26.054688 22.976562 26.828125 24.460938 26.828125 C 25.707031 26.828125 26.5 26.203125 26.5 25.34375 C 26.5 24.3125 25.683594 23.949219 24.308594 23.347656 L 23.558594 23.023438 C 21.390625 22.101562 19.949219 20.941406 19.949219 18.492188 C 19.949219 16.238281 21.667969 14.519531 24.351562 14.519531 C 26.265625 14.519531 27.640625 15.183594 28.628906 16.925781 L 26.285156 18.429688 C 25.769531 17.503906 25.210938 17.140625 24.351562 17.140625 C 23.472656 17.140625 22.914062 17.699219 22.914062 18.429688 C 22.914062 19.332031 23.472656 19.695312 24.761719 20.253906 L 25.511719 20.578125 C 28.070312 21.671875 29.507812 22.789062 29.507812 25.300781 C 29.507812 28.007812 27.382812 29.492188 24.523438 29.492188 C 21.734375 29.492188 19.929688 28.160156 19.046875 26.417969 "/>
</g>
</svg>
