<?xml version="1.0" encoding="UTF-8"?>
<svg xmlns="http://www.w3.org/2000/svg" xmlns:xlink="http://www.w3.org/1999/xlink" width="32px" height="32px" viewBox="0 0 32 32" version="1.1">
<g id="surface1">
<path style=" stroke:none;fill-rule:nonzero;fill:rgb(14.117647%,16.078431%,21.960784%);fill-opacity:1;" d="M 7.5 0 L 24.5 0 C 28.640625 0 32 3.359375 32 7.5 L 32 24.5 C 32 28.640625 28.640625 32 24.5 32 L 7.5 32 C 3.359375 32 0 28.640625 0 24.5 L 0 7.5 C 0 3.359375 3.359375 0 7.5 0 Z M 7.5 0 "/>
<path style=" stroke:none;fill-rule:nonzero;fill:rgb(92.54902%,93.72549%,94.509804%);fill-opacity:1;" d="M 10.742188 24.992188 L 13.808594 26.691406 L 18.445312 26.691406 L 22.785156 23.4375 L 24.730469 18.328125 L 20.242188 12.925781 L 18.96875 9.890625 L 12.761719 10.113281 L 12.835938 11.816406 L 11.640625 14.035156 L 9.769531 17.664062 L 9.398438 20.699219 Z M 10.742188 24.992188 "/>
<path style=" stroke:none;fill-rule:nonzero;fill:rgb(14.901961%,19.607843%,21.960784%);fill-opacity:1;" d="M 23.382812 14.332031 C 22.1875 12.628906 21.214844 11.59375 20.691406 9.445312 C 20.167969 7.300781 20.839844 7.890625 20.390625 6.042969 C 20.167969 5.078125 19.792969 4.414062 19.417969 3.894531 C 18.96875 3.378906 18.445312 3.082031 18.148438 3.007812 C 17.476562 2.636719 15.902344 2.042969 13.960938 3.082031 C 11.941406 4.117188 12.164062 6.339844 12.539062 10.851562 C 12.539062 11.148438 12.464844 11.519531 12.3125 11.816406 C 12.015625 12.480469 11.492188 13.074219 11.042969 13.59375 C 10.519531 14.332031 9.996094 15.070312 9.621094 15.886719 C 8.722656 17.589844 7.902344 19.734375 8.125 20.550781 C 8.5 20.476562 13.210938 27.582031 13.210938 27.730469 C 13.511719 27.65625 14.78125 27.65625 15.902344 27.65625 C 17.476562 27.582031 18.371094 27.507812 19.644531 27.804688 C 19.644531 27.582031 19.570312 27.359375 19.570312 27.136719 C 19.570312 26.691406 19.644531 26.324219 19.71875 25.804688 C 19.792969 25.433594 19.867188 25.066406 19.941406 24.621094 C 19.195312 25.285156 17.847656 26.027344 16.578125 26.25 C 15.457031 26.472656 13.585938 26.101562 12.6875 24.992188 C 12.761719 24.992188 12.914062 24.992188 12.988281 24.917969 C 13.210938 24.84375 13.4375 24.769531 13.511719 24.621094 C 13.734375 24.25 13.585938 23.878906 13.4375 23.660156 C 13.285156 23.4375 12.164062 22.621094 11.640625 22.179688 C 11.117188 21.734375 10.820312 21.511719 10.519531 21.214844 C 10.519531 21.214844 10.070312 20.773438 9.921875 20.625 C 9.769531 20.476562 9.695312 20.328125 9.621094 20.253906 C 9.472656 19.882812 9.398438 19.4375 9.472656 18.847656 C 9.546875 18.03125 9.847656 17.367188 10.21875 16.625 C 10.371094 16.332031 10.742188 15.738281 10.742188 15.738281 C 10.742188 15.738281 9.472656 18.847656 10.144531 19.808594 C 10.144531 19.808594 10.21875 18.847656 10.519531 17.886719 C 10.742188 17.21875 11.117188 16.257812 11.566406 15.738281 C 12.015625 15.21875 13.136719 13.296875 13.210938 12.113281 C 13.210938 11.59375 13.285156 11.074219 13.285156 10.703125 C 12.988281 10.410156 18.222656 9.667969 18.523438 10.484375 C 18.597656 10.777344 19.644531 13.445312 20.242188 14.851562 C 20.539062 15.515625 20.914062 16.109375 21.140625 16.847656 C 21.363281 17.664062 21.511719 18.773438 21.511719 19.882812 C 21.511719 20.105469 21.511719 20.476562 21.4375 20.847656 C 21.589844 20.847656 24.503906 17.738281 21.066406 15.144531 C 21.066406 15.144531 23.160156 16.109375 23.234375 18.03125 C 23.308594 19.585938 22.636719 20.847656 22.484375 21.066406 C 22.558594 21.066406 24.054688 21.734375 24.132812 21.734375 C 24.429688 21.734375 25.027344 21.511719 25.027344 21.511719 C 25.101562 21.289062 25.328125 20.699219 25.328125 20.476562 C 25.851562 18.773438 24.578125 16.035156 23.382812 14.332031 Z M 23.382812 14.332031 "/>
<path style=" stroke:none;fill-rule:nonzero;fill:rgb(92.54902%,93.72549%,94.509804%);fill-opacity:1;" d="M 13.882812 9.445312 C 14.421875 9.445312 14.855469 8.785156 14.855469 7.964844 C 14.855469 7.148438 14.421875 6.484375 13.882812 6.484375 C 13.347656 6.484375 12.914062 7.148438 12.914062 7.964844 C 12.914062 8.785156 13.347656 9.445312 13.882812 9.445312 Z M 13.882812 9.445312 "/>
<path style=" stroke:none;fill-rule:nonzero;fill:rgb(92.54902%,93.72549%,94.509804%);fill-opacity:1;" d="M 17.25 9.59375 C 17.953125 9.59375 18.523438 8.832031 18.523438 7.890625 C 18.523438 6.953125 17.953125 6.191406 17.25 6.191406 C 16.546875 6.191406 15.980469 6.953125 15.980469 7.890625 C 15.980469 8.832031 16.546875 9.59375 17.25 9.59375 Z M 17.25 9.59375 "/>
<path style=" stroke:none;fill-rule:nonzero;fill:rgb(12.941176%,12.941176%,12.941176%);fill-opacity:1;" d="M 14.429688 8.066406 C 14.367188 7.582031 14.082031 7.214844 13.796875 7.25 C 13.507812 7.289062 13.328125 7.710938 13.390625 8.199219 C 13.453125 8.683594 13.734375 9.050781 14.019531 9.015625 C 14.308594 8.976562 14.488281 8.554688 14.429688 8.066406 Z M 14.429688 8.066406 "/>
<path style=" stroke:none;fill-rule:nonzero;fill:rgb(12.941176%,12.941176%,12.941176%);fill-opacity:1;" d="M 17.175781 9.152344 C 17.589844 9.152344 17.921875 8.71875 17.921875 8.1875 C 17.921875 7.65625 17.589844 7.226562 17.175781 7.226562 C 16.761719 7.226562 16.425781 7.65625 16.425781 8.1875 C 16.425781 8.71875 16.761719 9.152344 17.175781 9.152344 Z M 17.175781 9.152344 "/>
<path style=" stroke:none;fill-rule:nonzero;fill:rgb(100%,75.686275%,2.745098%);fill-opacity:1;" d="M 27.121094 24.472656 C 26.824219 24.324219 26.300781 24.101562 25.851562 23.4375 C 25.625 23.066406 25.703125 22.03125 25.328125 21.585938 C 25.101562 21.289062 24.804688 21.4375 24.730469 21.4375 C 24.054688 21.585938 22.484375 22.621094 21.4375 21.4375 C 21.289062 21.289062 21.066406 21.066406 20.691406 21.066406 C 20.316406 21.066406 20.167969 21.214844 20.015625 21.511719 C 19.867188 21.808594 19.867188 22.03125 19.867188 22.769531 C 19.867188 23.363281 19.867188 24.027344 19.792969 24.546875 C 19.644531 25.804688 19.417969 26.546875 19.417969 27.285156 C 19.417969 28.101562 19.644531 28.617188 19.941406 28.839844 C 20.167969 29.0625 20.539062 29.210938 21.363281 29.210938 C 22.1875 29.210938 22.710938 28.914062 23.234375 28.394531 C 23.605469 28.027344 23.90625 27.878906 24.953125 27.136719 C 25.777344 26.621094 27.046875 25.953125 27.273438 25.730469 C 27.421875 25.582031 27.644531 25.507812 27.644531 25.066406 C 27.644531 24.695312 27.347656 24.546875 27.121094 24.472656 Z M 27.121094 24.472656 "/>
<path style=" stroke:none;fill-rule:nonzero;fill:rgb(100%,75.686275%,2.745098%);fill-opacity:1;" d="M 12.089844 24.695312 C 11.34375 23.511719 11.265625 23.289062 10.742188 22.546875 C 10.292969 21.808594 9.324219 20.402344 8.722656 20.402344 C 8.277344 20.402344 8.050781 20.625 7.753906 20.917969 C 7.453125 21.214844 7.152344 21.882812 6.628906 22.253906 C 6.179688 22.621094 4.910156 22.546875 4.609375 22.992188 C 4.3125 23.4375 4.910156 24.101562 4.910156 25.210938 C 4.910156 25.65625 4.535156 25.953125 4.460938 26.25 C 4.386719 26.621094 4.3125 26.839844 4.460938 27.136719 C 4.761719 27.582031 5.132812 27.730469 7.675781 28.246094 C 9.023438 28.542969 10.292969 29.285156 11.117188 29.359375 C 11.941406 29.433594 13.359375 29.359375 13.359375 27.359375 C 13.4375 26.175781 12.761719 25.878906 12.089844 24.695312 Z M 12.089844 24.695312 "/>
<path style=" stroke:none;fill-rule:nonzero;fill:rgb(100%,75.686275%,2.745098%);fill-opacity:1;" d="M 13.511719 11.296875 C 13.0625 11 12.6875 10.703125 12.6875 10.261719 C 12.6875 9.816406 12.988281 9.667969 13.4375 9.296875 C 13.511719 9.226562 14.332031 8.484375 15.15625 8.484375 C 15.980469 8.484375 16.949219 9.003906 17.324219 9.152344 C 18 9.296875 18.671875 9.445312 18.597656 9.964844 C 18.523438 10.703125 18.445312 10.851562 17.699219 11.222656 C 17.175781 11.371094 16.203125 12.183594 15.53125 12.183594 C 15.230469 12.183594 14.78125 12.183594 14.484375 12.113281 C 14.257812 12.039062 13.882812 11.667969 13.511719 11.296875 Z M 13.511719 11.296875 "/>
<path style=" stroke:none;fill-rule:nonzero;fill:rgb(38.823529%,27.843137%,1.176471%);fill-opacity:1;" d="M 13.359375 10.703125 C 13.511719 10.851562 13.734375 11 13.960938 11.074219 C 14.109375 11.148438 14.332031 11.222656 14.332031 11.222656 C 14.632812 11.222656 14.855469 11.222656 15.007812 11.222656 C 15.378906 11.222656 15.902344 11.074219 16.425781 10.777344 C 16.949219 10.558594 17.027344 10.410156 17.398438 10.261719 C 17.773438 10.039062 18.148438 9.816406 18 9.742188 C 17.847656 9.667969 17.699219 9.742188 17.175781 10.039062 C 16.726562 10.335938 16.351562 10.484375 15.902344 10.703125 C 15.679688 10.777344 15.378906 10.925781 15.15625 10.925781 C 14.933594 10.925781 14.707031 10.925781 14.484375 10.925781 C 14.257812 10.925781 14.109375 10.851562 13.882812 10.777344 C 13.734375 10.703125 13.660156 10.632812 13.585938 10.632812 C 13.4375 10.558594 13.136719 10.261719 12.988281 10.1875 C 12.988281 10.1875 12.835938 10.1875 12.914062 10.261719 C 13.136719 10.484375 13.210938 10.558594 13.359375 10.703125 Z M 13.359375 10.703125 "/>
<path style=" stroke:none;fill-rule:nonzero;fill:rgb(38.823529%,27.843137%,1.176471%);fill-opacity:1;" d="M 15.605469 9.078125 C 15.679688 9.226562 15.828125 9.226562 15.902344 9.296875 C 15.980469 9.371094 16.054688 9.371094 16.054688 9.371094 C 16.128906 9.296875 16.054688 9.152344 15.980469 9.152344 C 15.980469 9.003906 15.605469 9.003906 15.605469 9.078125 Z M 15.605469 9.078125 "/>
<path style=" stroke:none;fill-rule:nonzero;fill:rgb(38.823529%,27.843137%,1.176471%);fill-opacity:1;" d="M 14.410156 9.226562 C 14.410156 9.296875 14.558594 9.371094 14.558594 9.296875 C 14.632812 9.226562 14.707031 9.152344 14.78125 9.152344 C 14.933594 9.078125 14.855469 9.003906 14.632812 9.003906 C 14.484375 9.078125 14.484375 9.152344 14.410156 9.226562 Z M 14.410156 9.226562 "/>
<path style=" stroke:none;fill-rule:nonzero;fill:rgb(27.058824%,35.294118%,39.215686%);fill-opacity:1;" d="M 21.664062 22.324219 C 21.664062 22.398438 21.664062 22.472656 21.664062 22.546875 C 21.8125 22.84375 22.1875 22.917969 22.484375 22.917969 C 22.933594 22.917969 23.382812 22.621094 23.605469 22.324219 C 23.605469 22.253906 23.683594 22.179688 23.757812 22.105469 C 23.90625 21.882812 23.980469 21.734375 24.054688 21.660156 C 24.054688 21.660156 23.980469 21.585938 23.980469 21.511719 C 23.90625 21.363281 23.683594 21.214844 23.382812 21.140625 C 23.160156 21.066406 22.785156 20.992188 22.636719 20.992188 C 21.960938 20.917969 21.589844 21.140625 21.363281 21.363281 C 21.363281 21.363281 21.4375 21.363281 21.4375 21.4375 C 21.589844 21.585938 21.664062 21.734375 21.664062 21.957031 C 21.738281 22.105469 21.664062 22.179688 21.664062 22.324219 Z M 21.664062 22.324219 "/>
</g>
</svg>
