<?xml version="1.0" encoding="UTF-8"?>
<svg xmlns="http://www.w3.org/2000/svg" xmlns:xlink="http://www.w3.org/1999/xlink" width="32px" height="32px" viewBox="0 0 32 32" version="1.1">
<g id="surface1">
<path style=" stroke:none;fill-rule:nonzero;fill:rgb(0.784314%,20.392157%,18.823529%);fill-opacity:1;" d="M 7.5 0 L 24.5 0 C 28.640625 0 32 3.359375 32 7.5 L 32 24.5 C 32 28.640625 28.640625 32 24.5 32 L 7.5 32 C 3.359375 32 0 28.640625 0 24.5 L 0 7.5 C 0 3.359375 3.359375 0 7.5 0 Z M 7.5 0 "/>
<path style=" stroke:none;fill-rule:nonzero;fill:rgb(6.27451%,66.666667%,31.372549%);fill-opacity:1;" d="M 21.398438 13.449219 C 20.078125 7.640625 17.335938 6.09375 16.632812 5 C 16.34375 4.515625 16.089844 4.015625 15.867188 3.5 C 15.832031 4.015625 15.761719 4.339844 15.324219 4.734375 C 14.445312 5.519531 10.703125 8.566406 10.386719 15.167969 C 10.09375 21.324219 14.914062 25.117188 15.550781 25.511719 C 16.039062 25.753906 16.636719 25.515625 16.925781 25.296875 C 19.25 23.703125 22.421875 19.453125 21.398438 13.449219 "/>
<path style=" stroke:none;fill-rule:nonzero;fill:rgb(72.156863%,76.862745%,76.078431%);fill-opacity:1;" d="M 16.066406 22.234375 C 15.945312 23.757812 15.859375 24.644531 15.550781 25.511719 C 15.550781 25.511719 15.753906 26.964844 15.894531 28.5 L 16.398438 28.5 C 16.519531 27.417969 16.703125 26.34375 16.945312 25.285156 C 16.296875 24.964844 16.09375 23.570312 16.066406 22.234375 Z M 16.066406 22.234375 "/>
<path style=" stroke:none;fill-rule:nonzero;fill:rgb(7.058824%,57.254902%,30.980392%);fill-opacity:1;" d="M 16.945312 25.285156 C 16.289062 24.980469 16.097656 23.558594 16.070312 22.234375 C 16.230469 20.046875 16.277344 17.855469 16.210938 15.664062 C 16.175781 14.515625 16.226562 5.019531 15.929688 3.628906 C 16.132812 4.101562 16.367188 4.558594 16.632812 4.996094 C 17.335938 6.09375 20.082031 7.640625 21.398438 13.449219 C 22.421875 19.441406 19.265625 23.679688 16.945312 25.285156 Z M 16.945312 25.285156 "/>
</g>
</svg>
