<?xml version="1.0" encoding="UTF-8"?>
<svg xmlns="http://www.w3.org/2000/svg" xmlns:xlink="http://www.w3.org/1999/xlink" width="32px" height="32px" viewBox="0 0 32 32" version="1.1">
<defs>
<clipPath id="clip1">
  <path d="M 4.75 5 L 27.25 5 L 27.25 27.25 L 4.75 27.25 Z M 4.75 5 "/>
</clipPath>
</defs>
<g id="surface1">
<path style=" stroke:none;fill-rule:nonzero;fill:rgb(14.117647%,16.078431%,21.960784%);fill-opacity:1;" d="M 7.5 0 L 24.5 0 C 28.640625 0 32 3.359375 32 7.5 L 32 24.5 C 32 28.640625 28.640625 32 24.5 32 L 7.5 32 C 3.359375 32 0 28.640625 0 24.5 L 0 7.5 C 0 3.359375 3.359375 0 7.5 0 Z M 7.5 0 "/>
<g clip-path="url(#clip1)" clip-rule="nonzero">
<path style=" stroke:none;fill-rule:evenodd;fill:rgb(100%,100%,100%);fill-opacity:1;" d="M 25.476562 22.277344 C 24.25 22.242188 23.300781 22.367188 22.507812 22.703125 C 22.277344 22.792969 21.910156 22.792969 21.878906 23.082031 C 22 23.203125 22.015625 23.402344 22.125 23.570312 C 22.308594 23.875 22.628906 24.285156 22.917969 24.496094 L 23.898438 25.195312 C 24.496094 25.5625 25.167969 25.773438 25.75 26.140625 C 26.085938 26.351562 26.421875 26.625 26.761719 26.855469 C 26.933594 26.976562 27.035156 27.175781 27.25 27.25 L 27.25 27.203125 C 27.144531 27.066406 27.113281 26.871094 27.003906 26.71875 L 26.546875 26.277344 C 26.101562 25.683594 25.550781 25.164062 24.953125 24.742188 C 24.464844 24.40625 23.394531 23.949219 23.195312 23.386719 L 23.164062 23.351562 C 23.5 23.320312 23.898438 23.199219 24.21875 23.109375 C 24.742188 22.972656 25.214844 23.003906 25.75 22.867188 L 26.484375 22.652344 L 26.484375 22.515625 C 26.210938 22.242188 26.011719 21.878906 25.71875 21.621094 C 24.941406 20.949219 24.082031 20.296875 23.195312 19.75 C 22.722656 19.445312 22.109375 19.246094 21.605469 18.988281 C 21.417969 18.898438 21.113281 18.851562 21.007812 18.699219 C 20.730469 18.367188 20.578125 17.925781 20.378906 17.527344 L 19.125 14.882812 C 18.847656 14.289062 18.679688 13.695312 18.34375 13.148438 C 16.769531 10.5625 15.054688 8.996094 12.421875 7.460938 C 11.855469 7.140625 11.183594 7.003906 10.46875 6.839844 L 9.320312 6.777344 C 9.074219 6.671875 8.828125 6.382812 8.613281 6.242188 C 7.742188 5.695312 5.492188 4.511719 4.851562 6.074219 C 4.4375 7.0625 5.460938 8.035156 5.8125 8.539062 C 6.070312 8.886719 6.40625 9.28125 6.589844 9.679688 C 6.695312 9.9375 6.730469 10.210938 6.835938 10.484375 C 7.082031 11.152344 7.308594 11.898438 7.632812 12.523438 C 7.804688 12.839844 7.984375 13.175781 8.199219 13.464844 C 8.320312 13.636719 8.535156 13.707031 8.582031 13.980469 C 8.367188 14.285156 8.351562 14.742188 8.230469 15.125 C 7.675781 16.839844 7.890625 18.972656 8.671875 20.234375 C 8.917969 20.617188 9.496094 21.453125 10.28125 21.132812 C 10.96875 20.859375 10.8125 19.992188 11.011719 19.230469 C 11.058594 19.050781 11.027344 18.929688 11.121094 18.804688 L 11.121094 18.839844 L 11.746094 20.101562 C 12.222656 20.847656 13.050781 21.625 13.738281 22.140625 C 14.105469 22.414062 14.394531 22.886719 14.855469 23.054688 L 14.855469 23.007812 L 14.824219 23.007812 C 14.730469 22.871094 14.59375 22.808594 14.472656 22.703125 C 14.195312 22.429688 13.890625 22.09375 13.675781 21.789062 C 13.035156 20.9375 12.46875 19.996094 11.960938 19.023438 C 11.71875 18.550781 11.503906 18.035156 11.304688 17.5625 C 11.210938 17.378906 11.210938 17.105469 11.058594 17.015625 C 10.828125 17.351562 10.492188 17.640625 10.324219 18.050781 C 10.035156 18.703125 10.003906 19.507812 9.894531 20.347656 C 9.835938 20.363281 9.863281 20.347656 9.835938 20.378906 C 9.34375 20.257812 9.175781 19.757812 8.992188 19.332031 C 8.535156 18.25 8.457031 16.519531 8.855469 15.269531 C 8.960938 14.949219 9.421875 13.949219 9.238281 13.644531 C 9.144531 13.355469 8.839844 13.1875 8.671875 12.957031 C 8.472656 12.667969 8.257812 12.304688 8.121094 11.984375 C 7.753906 11.132812 7.570312 10.191406 7.171875 9.339844 C 6.988281 8.945312 6.667969 8.535156 6.40625 8.167969 C 6.117188 7.757812 5.796875 7.46875 5.566406 6.980469 C 5.488281 6.8125 5.382812 6.542969 5.503906 6.359375 C 5.535156 6.238281 5.597656 6.1875 5.71875 6.160156 C 5.917969 5.992188 6.484375 6.207031 6.683594 6.296875 C 7.25 6.527344 7.722656 6.738281 8.199219 7.058594 C 8.410156 7.210938 8.640625 7.5 8.917969 7.574219 L 9.238281 7.574219 C 9.726562 7.679688 10.277344 7.609375 10.738281 7.746094 C 11.546875 8.003906 12.28125 8.382812 12.941406 8.796875 C 14.945312 10.058594 16.597656 11.851562 17.714844 13.996094 C 17.898438 14.347656 17.976562 14.664062 18.144531 15.03125 C 18.464844 15.777344 18.863281 16.535156 19.183594 17.265625 C 19.507812 17.980469 19.8125 18.710938 20.269531 19.304688 C 20.5 19.625 21.417969 19.792969 21.832031 19.957031 C 22.136719 20.09375 22.613281 20.21875 22.886719 20.382812 C 23.40625 20.703125 23.929688 21.070312 24.417969 21.417969 C 24.664062 21.601562 25.429688 21.980469 25.472656 22.285156 Z M 9.871094 9.0625 C 9.660156 9.058594 9.449219 9.085938 9.242188 9.136719 L 9.242188 9.171875 L 9.273438 9.171875 C 9.394531 9.414062 9.609375 9.582031 9.761719 9.792969 L 10.113281 10.523438 L 10.144531 10.492188 C 10.359375 10.339844 10.46875 10.09375 10.46875 9.730469 C 10.375 9.625 10.359375 9.519531 10.285156 9.410156 C 10.191406 9.257812 9.992188 9.183594 9.871094 9.0625 Z M 9.871094 9.0625 "/>
</g>
</g>
</svg>
