<?xml version="1.0" encoding="UTF-8"?>
<svg xmlns="http://www.w3.org/2000/svg" xmlns:xlink="http://www.w3.org/1999/xlink" width="32px" height="32px" viewBox="0 0 32 32" version="1.1">
<g id="surface1">
<path style=" stroke:none;fill-rule:nonzero;fill:rgb(14.117647%,16.078431%,21.960784%);fill-opacity:1;" d="M 7.5 0 L 24.5 0 C 28.640625 0 32 3.359375 32 7.5 L 32 24.5 C 32 28.640625 28.640625 32 24.5 32 L 7.5 32 C 3.359375 32 0 28.640625 0 24.5 L 0 7.5 C 0 3.359375 3.359375 0 7.5 0 Z M 7.5 0 "/>
<path style=" stroke:none;fill-rule:nonzero;fill:rgb(87.843137%,13.72549%,30.588235%);fill-opacity:1;" d="M 18.339844 2.25 C 18.148438 2.25 17.964844 2.292969 17.800781 2.351562 C 18.152344 2.59375 18.347656 2.914062 18.445312 3.277344 C 18.453125 3.328125 18.464844 3.363281 18.472656 3.414062 C 18.480469 3.453125 18.488281 3.496094 18.488281 3.539062 C 18.515625 4.167969 18.328125 4.246094 18.195312 4.617188 C 17.992188 5.09375 18.050781 5.609375 18.292969 6.023438 C 18.3125 6.070312 18.339844 6.128906 18.375 6.179688 C 18.113281 4.375 19.578125 4.105469 19.847656 3.539062 C 19.871094 3.046875 19.472656 2.71875 19.160156 2.492188 C 18.863281 2.308594 18.589844 2.25 18.339844 2.25 Z M 20.550781 2.65625 C 20.523438 2.820312 20.542969 2.777344 20.535156 2.863281 C 20.53125 2.921875 20.53125 2.992188 20.523438 3.046875 C 20.507812 3.105469 20.496094 3.164062 20.472656 3.21875 C 20.460938 3.277344 20.4375 3.332031 20.417969 3.390625 C 20.390625 3.449219 20.371094 3.496094 20.34375 3.554688 C 20.320312 3.582031 20.308594 3.613281 20.285156 3.640625 C 20.273438 3.660156 20.257812 3.683594 20.246094 3.703125 C 20.210938 3.753906 20.175781 3.804688 20.140625 3.847656 C 20.097656 3.890625 20.0625 3.941406 20.015625 3.976562 C 20.015625 3.984375 20.015625 3.984375 20.015625 3.984375 C 19.972656 4.019531 19.933594 4.0625 19.882812 4.097656 C 19.738281 4.210938 19.570312 4.296875 19.417969 4.402344 C 19.371094 4.4375 19.320312 4.46875 19.277344 4.511719 C 19.230469 4.546875 19.1875 4.582031 19.148438 4.625 C 19.097656 4.667969 19.0625 4.710938 19.023438 4.757812 C 18.988281 4.800781 18.945312 4.851562 18.917969 4.902344 C 18.882812 4.953125 18.847656 5.003906 18.820312 5.050781 C 18.792969 5.109375 18.773438 5.160156 18.742188 5.214844 C 18.722656 5.273438 18.703125 5.324219 18.6875 5.378906 C 18.667969 5.445312 18.652344 5.5 18.640625 5.558594 C 18.632812 5.585938 18.632812 5.621094 18.625 5.652344 C 18.617188 5.679688 18.617188 5.707031 18.613281 5.738281 C 18.613281 5.792969 18.605469 5.859375 18.605469 5.914062 C 18.605469 5.957031 18.605469 6 18.613281 6.042969 C 18.613281 6.101562 18.617188 6.15625 18.632812 6.222656 C 18.640625 6.277344 18.652344 6.335938 18.667969 6.390625 C 18.6875 6.449219 18.703125 6.507812 18.722656 6.5625 C 18.738281 6.597656 18.757812 6.636719 18.773438 6.664062 L 17.175781 6.027344 C 16.902344 5.949219 16.640625 5.878906 16.367188 5.816406 C 16.222656 5.78125 16.074219 5.742188 15.929688 5.707031 C 15.511719 5.621094 15.089844 5.558594 14.664062 5.515625 C 14.652344 5.515625 14.644531 5.507812 14.632812 5.507812 C 14.214844 5.464844 13.804688 5.445312 13.386719 5.445312 C 13.082031 5.445312 12.777344 5.457031 12.476562 5.480469 C 12.054688 5.507812 11.628906 5.566406 11.207031 5.636719 C 11.101562 5.652344 10.996094 5.671875 10.894531 5.695312 C 10.675781 5.738281 10.46875 5.785156 10.269531 5.835938 C 10.164062 5.863281 10.058594 5.894531 9.953125 5.921875 C 9.851562 5.964844 9.753906 6.015625 9.65625 6.058594 C 9.578125 6.09375 9.503906 6.128906 9.425781 6.164062 C 9.414062 6.171875 9.398438 6.171875 9.390625 6.179688 C 9.324219 6.214844 9.261719 6.242188 9.199219 6.277344 C 9.175781 6.285156 9.164062 6.292969 9.148438 6.300781 C 9.074219 6.335938 8.996094 6.378906 8.933594 6.414062 C 8.886719 6.433594 8.835938 6.464844 8.792969 6.484375 C 8.773438 6.5 8.746094 6.511719 8.730469 6.519531 C 8.667969 6.554688 8.605469 6.59375 8.550781 6.628906 C 8.488281 6.664062 8.433594 6.699219 8.386719 6.734375 C 8.335938 6.769531 8.289062 6.800781 8.246094 6.835938 C 8.238281 6.839844 8.230469 6.839844 8.226562 6.847656 C 8.183594 6.878906 8.132812 6.914062 8.09375 6.949219 C 8.09375 6.949219 8.085938 6.957031 8.078125 6.960938 C 8.042969 6.992188 8.007812 7.019531 7.976562 7.046875 C 7.960938 7.054688 7.945312 7.070312 7.933594 7.078125 C 7.898438 7.105469 7.863281 7.140625 7.828125 7.167969 C 7.820312 7.183594 7.808594 7.191406 7.800781 7.199219 C 7.757812 7.242188 7.71875 7.277344 7.675781 7.320312 C 7.667969 7.320312 7.667969 7.328125 7.664062 7.332031 C 7.621094 7.371094 7.578125 7.410156 7.539062 7.453125 C 7.53125 7.460938 7.53125 7.46875 7.523438 7.46875 C 7.488281 7.503906 7.453125 7.539062 7.417969 7.582031 C 7.40625 7.597656 7.382812 7.613281 7.371094 7.625 C 7.335938 7.667969 7.292969 7.710938 7.253906 7.753906 C 7.246094 7.769531 7.230469 7.777344 7.222656 7.789062 C 7.167969 7.847656 7.121094 7.902344 7.066406 7.960938 C 7.058594 7.96875 7.050781 7.976562 7.042969 7.980469 C 6.933594 8.105469 6.816406 8.226562 6.691406 8.332031 C 6.566406 8.445312 6.433594 8.554688 6.300781 8.644531 C 6.160156 8.746094 6.03125 8.832031 5.882812 8.917969 C 5.746094 8.996094 5.597656 9.066406 5.445312 9.128906 C 5.300781 9.195312 5.148438 9.25 4.996094 9.300781 C 4.703125 9.367188 4.402344 9.488281 4.148438 9.507812 C 4.089844 9.507812 4.027344 9.523438 3.972656 9.53125 C 3.910156 9.542969 3.855469 9.558594 3.800781 9.574219 C 3.742188 9.59375 3.6875 9.613281 3.632812 9.636719 C 3.578125 9.65625 3.519531 9.6875 3.464844 9.714844 C 3.417969 9.75 3.363281 9.777344 3.3125 9.816406 C 3.265625 9.851562 3.214844 9.894531 3.175781 9.9375 C 3.125 9.972656 3.078125 10.023438 3.035156 10.0625 C 2.992188 10.113281 2.953125 10.15625 2.917969 10.207031 C 2.882812 10.265625 2.839844 10.3125 2.8125 10.371094 C 2.777344 10.421875 2.742188 10.476562 2.714844 10.535156 C 2.6875 10.597656 2.660156 10.65625 2.640625 10.71875 C 2.617188 10.777344 2.597656 10.839844 2.578125 10.90625 C 2.5625 10.960938 2.546875 11.019531 2.542969 11.078125 C 2.542969 11.082031 2.535156 11.089844 2.535156 11.097656 C 2.519531 11.164062 2.519531 11.246094 2.515625 11.289062 C 2.507812 11.339844 2.5 11.382812 2.5 11.433594 C 2.5 11.460938 2.5 11.496094 2.507812 11.527344 C 2.515625 11.574219 2.519531 11.617188 2.535156 11.660156 C 2.546875 11.703125 2.5625 11.746094 2.582031 11.789062 C 2.582031 11.796875 2.582031 11.796875 2.582031 11.796875 C 2.605469 11.839844 2.632812 11.882812 2.660156 11.925781 C 2.6875 11.96875 2.714844 12.011719 2.75 12.054688 C 2.785156 12.089844 2.828125 12.132812 2.867188 12.167969 C 2.910156 12.210938 2.953125 12.246094 3 12.28125 C 3.167969 12.429688 3.207031 12.480469 3.425781 12.59375 C 3.457031 12.617188 3.492188 12.632812 3.535156 12.652344 C 3.542969 12.652344 3.550781 12.660156 3.554688 12.660156 C 3.554688 12.675781 3.554688 12.679688 3.5625 12.695312 C 3.570312 12.753906 3.582031 12.808594 3.597656 12.867188 C 3.613281 12.929688 3.632812 12.988281 3.652344 13.039062 C 3.675781 13.082031 3.6875 13.121094 3.707031 13.164062 C 3.714844 13.179688 3.722656 13.195312 3.730469 13.203125 C 3.757812 13.257812 3.785156 13.308594 3.8125 13.359375 C 3.847656 13.410156 3.882812 13.457031 3.917969 13.507812 C 3.953125 13.550781 3.992188 13.601562 4.035156 13.644531 C 4.078125 13.6875 4.117188 13.722656 4.167969 13.765625 C 4.167969 13.765625 4.175781 13.773438 4.179688 13.773438 C 4.222656 13.808594 4.265625 13.84375 4.304688 13.871094 C 4.355469 13.90625 4.402344 13.9375 4.460938 13.964844 C 4.507812 13.992188 4.5625 14.019531 4.617188 14.042969 C 4.660156 14.0625 4.710938 14.078125 4.757812 14.09375 C 4.765625 14.101562 4.773438 14.101562 4.785156 14.105469 C 4.8125 14.113281 4.847656 14.121094 4.875 14.128906 C 4.855469 14.511719 4.847656 14.878906 4.902344 15.003906 C 4.964844 15.148438 5.273438 14.714844 5.578125 14.214844 C 5.535156 14.707031 5.507812 15.285156 5.578125 15.453125 C 5.65625 15.632812 6.070312 15.078125 6.433594 14.464844 C 11.359375 13.292969 15.855469 16.789062 16.328125 21.722656 C 16.234375 20.953125 15.3125 20.523438 14.886719 20.632812 C 14.679688 21.160156 14.324219 21.835938 13.753906 22.257812 C 13.804688 21.785156 13.785156 21.300781 13.6875 20.832031 C 13.535156 21.488281 13.234375 22.101562 12.824219 22.628906 C 12.164062 22.675781 11.503906 22.347656 11.15625 21.855469 C 11.128906 21.835938 11.121094 21.792969 11.101562 21.765625 C 11.082031 21.714844 11.058594 21.664062 11.046875 21.613281 C 11.023438 21.566406 11.011719 21.515625 11.003906 21.464844 C 10.996094 21.414062 10.996094 21.367188 10.996094 21.308594 C 10.996094 21.273438 10.996094 21.238281 10.996094 21.203125 C 11.003906 21.152344 11.019531 21.101562 11.03125 21.050781 C 11.046875 21 11.058594 20.953125 11.082031 20.902344 C 11.109375 20.851562 11.128906 20.800781 11.164062 20.753906 C 11.28125 20.410156 11.28125 20.132812 11.066406 19.96875 C 11.023438 19.9375 10.984375 19.917969 10.933594 19.898438 C 10.90625 19.890625 10.871094 19.875 10.84375 19.867188 C 10.824219 19.859375 10.808594 19.855469 10.789062 19.847656 C 10.738281 19.832031 10.691406 19.816406 10.644531 19.8125 C 10.59375 19.796875 10.546875 19.789062 10.496094 19.789062 C 10.449219 19.78125 10.394531 19.773438 10.34375 19.773438 C 10.308594 19.773438 10.273438 19.78125 10.238281 19.78125 C 10.183594 19.78125 10.136719 19.789062 10.085938 19.804688 C 10.039062 19.8125 9.988281 19.816406 9.941406 19.832031 C 9.890625 19.847656 9.84375 19.859375 9.796875 19.882812 C 9.746094 19.902344 9.703125 19.925781 9.65625 19.945312 C 9.613281 19.96875 9.574219 19.996094 9.523438 20.019531 C 7.90625 21.101562 8.871094 23.640625 9.976562 24.375 C 9.558594 24.453125 9.136719 24.546875 9.015625 24.636719 C 9.011719 24.644531 9.003906 24.652344 9.003906 24.652344 C 9.300781 24.835938 9.613281 24.996094 9.941406 25.128906 C 10.386719 25.28125 10.859375 25.414062 11.066406 25.472656 L 11.066406 25.480469 C 11.644531 25.601562 12.226562 25.644531 12.816406 25.609375 C 15.894531 25.386719 18.417969 22.984375 18.875 19.816406 C 18.890625 19.882812 18.902344 19.9375 18.917969 20.003906 C 18.9375 20.132812 18.964844 20.265625 18.980469 20.402344 C 18.980469 20.402344 18.980469 20.402344 18.980469 20.410156 C 18.996094 20.472656 19 20.539062 19.007812 20.59375 C 19.007812 20.609375 19.007812 20.617188 19.007812 20.625 C 19.015625 20.6875 19.023438 20.753906 19.023438 20.808594 C 19.027344 20.886719 19.035156 20.964844 19.035156 21.042969 C 19.035156 21.078125 19.035156 21.117188 19.035156 21.160156 C 19.035156 21.195312 19.042969 21.238281 19.042969 21.273438 C 19.042969 21.316406 19.035156 21.359375 19.035156 21.402344 C 19.035156 21.4375 19.035156 21.472656 19.035156 21.5 C 19.035156 21.550781 19.027344 21.59375 19.027344 21.644531 C 19.027344 21.671875 19.027344 21.699219 19.023438 21.734375 C 19.023438 21.785156 19.015625 21.835938 19.015625 21.894531 C 19.007812 21.914062 19.007812 21.9375 19.007812 21.957031 C 19 22.015625 18.992188 22.0625 18.988281 22.121094 C 18.988281 22.140625 18.988281 22.164062 18.980469 22.183594 C 18.972656 22.257812 18.960938 22.320312 18.953125 22.390625 L 18.953125 22.40625 C 18.9375 22.46875 18.925781 22.542969 18.910156 22.605469 C 18.910156 22.613281 18.910156 22.621094 18.910156 22.628906 C 18.898438 22.691406 18.882812 22.753906 18.867188 22.820312 C 18.867188 22.828125 18.863281 22.839844 18.863281 22.847656 C 18.847656 22.914062 18.835938 22.976562 18.8125 23.039062 C 18.8125 23.046875 18.8125 23.054688 18.8125 23.0625 C 18.792969 23.132812 18.773438 23.199219 18.757812 23.261719 C 18.75 23.269531 18.75 23.277344 18.75 23.277344 C 18.730469 23.347656 18.710938 23.417969 18.6875 23.488281 C 18.660156 23.5625 18.640625 23.625 18.613281 23.695312 C 18.585938 23.769531 18.5625 23.839844 18.535156 23.902344 C 18.507812 23.976562 18.480469 24.039062 18.453125 24.109375 L 18.445312 24.109375 C 18.417969 24.175781 18.390625 24.246094 18.355469 24.308594 C 18.347656 24.332031 18.339844 24.34375 18.335938 24.359375 C 18.328125 24.367188 18.328125 24.375 18.320312 24.382812 C 17.867188 25.316406 17.203125 26.136719 16.367188 26.777344 C 16.3125 26.8125 16.257812 26.855469 16.199219 26.898438 C 16.1875 26.914062 16.167969 26.917969 16.152344 26.933594 C 16.105469 26.96875 16.054688 27.003906 16 27.039062 L 16.019531 27.082031 L 16.027344 27.082031 C 16.125 27.070312 16.222656 27.054688 16.320312 27.039062 L 16.324219 27.039062 C 16.507812 27.011719 16.6875 26.976562 16.867188 26.941406 C 16.917969 26.933594 16.972656 26.917969 17.019531 26.90625 C 17.054688 26.898438 17.082031 26.890625 17.117188 26.882812 C 17.167969 26.875 17.214844 26.863281 17.265625 26.855469 C 17.304688 26.839844 17.347656 26.832031 17.390625 26.820312 C 18.085938 26.648438 18.757812 26.414062 19.402344 26.136719 C 18.300781 27.683594 16.820312 28.929688 15.089844 29.75 C 15.886719 29.691406 16.6875 29.558594 17.457031 29.328125 C 20.257812 28.480469 22.613281 26.546875 24.023438 23.945312 C 23.738281 25.59375 23.101562 27.160156 22.15625 28.53125 C 22.828125 28.074219 23.449219 27.546875 24.011719 26.949219 C 25.566406 25.28125 26.589844 23.160156 26.933594 20.886719 C 27.171875 22.015625 27.242188 23.175781 27.136719 24.324219 C 32.152344 17.144531 27.554688 9.699219 25.628906 7.738281 C 25.621094 7.726562 25.617188 7.71875 25.617188 7.703125 C 25.609375 7.710938 25.609375 7.710938 25.609375 7.71875 C 25.609375 7.710938 25.609375 7.710938 25.601562 7.703125 C 25.601562 7.789062 25.59375 7.875 25.585938 7.960938 C 25.566406 8.125 25.546875 8.28125 25.519531 8.4375 C 25.484375 8.59375 25.441406 8.753906 25.398438 8.910156 C 25.351562 9.058594 25.296875 9.214844 25.234375 9.367188 C 25.171875 9.507812 25.101562 9.65625 25.023438 9.800781 C 24.949219 9.9375 24.863281 10.078125 24.773438 10.207031 C 24.683594 10.34375 24.585938 10.472656 24.488281 10.59375 C 24.386719 10.71875 24.273438 10.835938 24.164062 10.949219 C 24.09375 11.011719 24.03125 11.070312 23.960938 11.125 C 23.90625 11.175781 23.859375 11.21875 23.800781 11.269531 C 23.675781 11.371094 23.550781 11.460938 23.414062 11.546875 C 23.28125 11.632812 23.140625 11.71875 23.003906 11.789062 C 22.855469 11.859375 22.710938 11.925781 22.566406 11.988281 C 22.417969 12.046875 22.265625 12.097656 22.113281 12.140625 C 21.960938 12.183594 21.800781 12.21875 21.648438 12.246094 C 21.488281 12.273438 21.328125 12.289062 21.175781 12.304688 C 21.066406 12.308594 20.953125 12.316406 20.84375 12.316406 C 20.683594 12.316406 20.523438 12.304688 20.371094 12.289062 C 20.210938 12.273438 20.050781 12.253906 19.898438 12.21875 C 19.738281 12.1875 19.585938 12.144531 19.433594 12.097656 L 19.425781 12.097656 C 19.578125 12.082031 19.730469 12.066406 19.882812 12.039062 C 20.042969 12.011719 20.195312 11.976562 20.347656 11.933594 C 20.5 11.890625 20.65625 11.839844 20.800781 11.78125 C 20.953125 11.726562 21.097656 11.65625 21.238281 11.582031 C 21.382812 11.511719 21.515625 11.433594 21.65625 11.347656 C 21.789062 11.253906 21.917969 11.164062 22.042969 11.0625 C 22.167969 10.960938 22.289062 10.855469 22.398438 10.742188 C 22.515625 10.636719 22.621094 10.511719 22.726562 10.390625 C 22.828125 10.265625 22.925781 10.136719 23.015625 10.007812 C 23.03125 9.984375 23.042969 9.957031 23.058594 9.9375 C 23.128906 9.820312 23.199219 9.707031 23.261719 9.59375 C 23.335938 9.453125 23.40625 9.308594 23.46875 9.160156 C 23.53125 9.007812 23.585938 8.859375 23.636719 8.703125 C 23.683594 8.554688 23.71875 8.394531 23.753906 8.238281 C 23.78125 8.074219 23.808594 7.917969 23.824219 7.761719 C 23.835938 7.597656 23.851562 7.433594 23.851562 7.277344 C 23.851562 7.164062 23.84375 7.046875 23.835938 6.933594 C 23.824219 6.769531 23.800781 6.613281 23.78125 6.457031 C 23.753906 6.292969 23.71875 6.136719 23.675781 5.980469 C 23.628906 5.828125 23.578125 5.671875 23.523438 5.523438 C 23.46875 5.371094 23.398438 5.222656 23.328125 5.082031 C 23.253906 4.9375 23.175781 4.796875 23.09375 4.660156 C 23.003906 4.523438 22.914062 4.394531 22.816406 4.269531 C 22.710938 4.148438 22.605469 4.023438 22.496094 3.902344 C 22.441406 3.847656 22.378906 3.78125 22.316406 3.726562 C 22.003906 3.476562 21.675781 3.242188 21.347656 3.027344 C 21.300781 3 21.257812 2.976562 21.210938 2.957031 C 20.980469 2.804688 20.765625 2.726562 20.550781 2.65625 Z M 20.550781 2.65625 "/>
</g>
</svg>
