<?xml version="1.0" encoding="UTF-8"?>
<svg xmlns="http://www.w3.org/2000/svg" xmlns:xlink="http://www.w3.org/1999/xlink" width="32px" height="32px" viewBox="0 0 32 32" version="1.1">
<g id="surface1">
<path style=" stroke:none;fill-rule:nonzero;fill:rgb(14.117647%,16.078431%,21.960784%);fill-opacity:1;" d="M 7.5 0 L 24.5 0 C 28.640625 0 32 3.359375 32 7.5 L 32 24.5 C 32 28.640625 28.640625 32 24.5 32 L 7.5 32 C 3.359375 32 0 28.640625 0 24.5 L 0 7.5 C 0 3.359375 3.359375 0 7.5 0 Z M 7.5 0 "/>
<path style=" stroke:none;fill-rule:nonzero;fill:rgb(50.588235%,80.392157%,22.352941%);fill-opacity:1;" d="M 14.984375 3.890625 C 15.601562 3.539062 16.398438 3.535156 17.015625 3.890625 C 20.105469 5.636719 23.195312 7.378906 26.285156 9.125 C 26.867188 9.453125 27.253906 10.101562 27.25 10.769531 L 27.25 21.277344 C 27.253906 21.972656 26.828125 22.636719 26.214844 22.957031 C 23.132812 24.691406 20.054688 26.429688 16.976562 28.167969 C 16.347656 28.527344 15.53125 28.5 14.921875 28.109375 C 14 27.574219 13.074219 27.042969 12.152344 26.507812 C 11.960938 26.394531 11.75 26.304688 11.617188 26.121094 C 11.734375 25.964844 11.945312 25.945312 12.117188 25.875 C 12.5 25.75 12.855469 25.554688 13.210938 25.363281 C 13.300781 25.304688 13.410156 25.328125 13.496094 25.382812 C 14.285156 25.832031 15.066406 26.300781 15.859375 26.75 C 16.027344 26.847656 16.199219 26.714844 16.34375 26.636719 C 19.367188 24.925781 22.394531 23.226562 25.414062 21.515625 C 25.527344 21.460938 25.589844 21.34375 25.578125 21.222656 C 25.582031 17.753906 25.578125 14.289062 25.582031 10.824219 C 25.59375 10.683594 25.511719 10.558594 25.386719 10.5 C 22.316406 8.769531 19.25 7.039062 16.179688 5.3125 C 16.070312 5.234375 15.929688 5.234375 15.820312 5.308594 C 12.75 7.039062 9.683594 8.773438 6.613281 10.5 C 6.488281 10.558594 6.40625 10.683594 6.417969 10.824219 C 6.421875 14.289062 6.417969 17.753906 6.417969 21.222656 C 6.410156 21.34375 6.476562 21.460938 6.585938 21.511719 C 7.40625 21.976562 8.226562 22.4375 9.042969 22.902344 C 9.507812 23.148438 10.074219 23.296875 10.582031 23.109375 C 11.03125 22.945312 11.34375 22.488281 11.335938 22.011719 C 11.339844 18.566406 11.335938 15.121094 11.339844 11.675781 C 11.328125 11.523438 11.472656 11.398438 11.621094 11.410156 C 12.015625 11.410156 12.410156 11.40625 12.804688 11.414062 C 12.96875 11.410156 13.082031 11.574219 13.0625 11.726562 C 13.058594 15.195312 13.066406 18.660156 13.058594 22.128906 C 13.058594 23.054688 12.679688 24.058594 11.824219 24.511719 C 10.773438 25.054688 9.46875 24.941406 8.429688 24.417969 C 7.53125 23.96875 6.671875 23.4375 5.785156 22.957031 C 5.171875 22.636719 4.746094 21.972656 4.75 21.277344 L 4.75 10.769531 C 4.742188 10.085938 5.148438 9.429688 5.746094 9.105469 C 8.828125 7.367188 11.90625 5.628906 14.984375 3.890625 Z M 14.984375 3.890625 "/>
<path style=" stroke:none;fill-rule:nonzero;fill:rgb(50.588235%,80.392157%,22.352941%);fill-opacity:1;" d="M 17.671875 11.167969 C 19.015625 11.082031 20.453125 11.117188 21.660156 11.777344 C 22.597656 12.285156 23.117188 13.347656 23.132812 14.386719 C 23.105469 14.527344 22.960938 14.605469 22.824219 14.597656 C 22.4375 14.59375 22.046875 14.601562 21.65625 14.59375 C 21.492188 14.601562 21.394531 14.449219 21.375 14.300781 C 21.261719 13.804688 20.992188 13.3125 20.523438 13.070312 C 19.804688 12.710938 18.972656 12.730469 18.1875 12.738281 C 17.613281 12.765625 17 12.816406 16.515625 13.152344 C 16.144531 13.410156 16.03125 13.921875 16.164062 14.335938 C 16.289062 14.632812 16.632812 14.730469 16.914062 14.820312 C 18.53125 15.242188 20.246094 15.199219 21.835938 15.757812 C 22.492188 15.984375 23.132812 16.425781 23.359375 17.113281 C 23.652344 18.035156 23.523438 19.140625 22.867188 19.878906 C 22.335938 20.488281 21.5625 20.820312 20.789062 21 C 19.757812 21.230469 18.691406 21.238281 17.648438 21.132812 C 16.664062 21.023438 15.644531 20.765625 14.886719 20.09375 C 14.238281 19.53125 13.921875 18.65625 13.953125 17.808594 C 13.960938 17.664062 14.101562 17.566406 14.238281 17.578125 C 14.628906 17.574219 15.023438 17.574219 15.414062 17.578125 C 15.574219 17.566406 15.6875 17.703125 15.695312 17.851562 C 15.769531 18.324219 15.945312 18.820312 16.359375 19.101562 C 17.15625 19.617188 18.160156 19.582031 19.070312 19.597656 C 19.828125 19.5625 20.679688 19.550781 21.296875 19.050781 C 21.621094 18.765625 21.71875 18.289062 21.628906 17.878906 C 21.535156 17.53125 21.171875 17.371094 20.859375 17.265625 C 19.261719 16.761719 17.527344 16.945312 15.945312 16.371094 C 15.304688 16.144531 14.683594 15.714844 14.433594 15.054688 C 14.089844 14.121094 14.25 12.964844 14.972656 12.25 C 15.679688 11.539062 16.699219 11.265625 17.671875 11.167969 "/>
</g>
</svg>
