<?xml version="1.0" encoding="UTF-8"?>
<svg xmlns="http://www.w3.org/2000/svg" xmlns:xlink="http://www.w3.org/1999/xlink" width="32px" height="32px" viewBox="0 0 32 32" version="1.1">
<g id="surface1">
<path style=" stroke:none;fill-rule:nonzero;fill:rgb(100%,42.352941%,21.568627%);fill-opacity:1;" d="M 7.5 0 L 24.5 0 C 28.640625 0 32 3.359375 32 7.5 L 32 24.5 C 32 28.640625 28.640625 32 24.5 32 L 7.5 32 C 3.359375 32 0 28.640625 0 24.5 L 0 7.5 C 0 3.359375 3.359375 0 7.5 0 Z M 7.5 0 "/>
<path style=" stroke:none;fill-rule:nonzero;fill:rgb(93.333333%,93.333333%,93.333333%);fill-opacity:1;" d="M 21.132812 11.078125 L 14.816406 17.394531 L 13.035156 15.613281 C 19.246094 9.398438 19.859375 9.9375 21.132812 11.078125 Z M 21.132812 11.078125 "/>
<path style=" stroke:none;fill-rule:nonzero;fill:rgb(100%,42.352941%,21.568627%);fill-opacity:1;" d="M 14.816406 17.542969 C 14.769531 17.542969 14.742188 17.527344 14.710938 17.5 L 12.914062 15.71875 C 12.855469 15.65625 12.855469 15.566406 12.914062 15.507812 C 19.230469 9.191406 19.890625 9.789062 21.222656 10.988281 C 21.253906 11.015625 21.265625 11.046875 21.265625 11.089844 C 21.265625 11.136719 21.253906 11.167969 21.222656 11.195312 L 14.90625 17.5 C 14.890625 17.527344 14.84375 17.542969 14.816406 17.542969 Z M 13.242188 15.613281 L 14.816406 17.183594 L 20.90625 11.089844 C 19.800781 10.101562 19.050781 9.804688 13.242188 15.613281 Z M 13.242188 15.613281 "/>
<path style=" stroke:none;fill-rule:nonzero;fill:rgb(93.333333%,93.333333%,93.333333%);fill-opacity:1;" d="M 16.625 19.207031 L 14.90625 17.484375 L 21.222656 11.167969 C 22.914062 12.871094 20.382812 15.644531 16.625 19.207031 Z M 16.625 19.207031 "/>
<path style=" stroke:none;fill-rule:nonzero;fill:rgb(100%,42.352941%,21.568627%);fill-opacity:1;" d="M 16.625 19.355469 C 16.582031 19.355469 16.550781 19.339844 16.523438 19.308594 L 14.800781 17.589844 C 14.769531 17.558594 14.769531 17.527344 14.769531 17.484375 C 14.769531 17.4375 14.785156 17.410156 14.816406 17.378906 L 21.132812 11.0625 C 21.191406 11 21.28125 11 21.34375 11.0625 C 21.730469 11.421875 21.941406 11.929688 21.925781 12.453125 C 21.894531 14.117188 20.011719 16.226562 16.746094 19.308594 C 16.703125 19.339844 16.65625 19.355469 16.625 19.355469 Z M 15.113281 17.484375 C 16.074219 18.457031 16.476562 18.847656 16.625 18.996094 C 19.140625 16.601562 21.582031 14.144531 21.597656 12.453125 C 21.613281 12.066406 21.460938 11.675781 21.207031 11.375 Z M 15.113281 17.484375 "/>
<path style=" stroke:none;fill-rule:nonzero;fill:rgb(93.333333%,93.333333%,93.333333%);fill-opacity:1;" d="M 13.0625 15.65625 L 14.335938 16.929688 C 14.367188 16.960938 14.367188 16.988281 14.335938 17.019531 C 14.320312 17.035156 14.320312 17.035156 14.304688 17.035156 L 11.671875 17.605469 C 11.535156 17.617188 11.417969 17.527344 11.386719 17.394531 C 11.371094 17.320312 11.402344 17.246094 11.445312 17.199219 L 12.972656 15.671875 C 13.003906 15.640625 13.046875 15.628906 13.0625 15.65625 Z M 13.0625 15.65625 "/>
<path style=" stroke:none;fill-rule:nonzero;fill:rgb(100%,42.352941%,21.568627%);fill-opacity:1;" d="M 11.625 17.753906 C 11.402344 17.753906 11.238281 17.574219 11.238281 17.347656 C 11.238281 17.246094 11.28125 17.140625 11.355469 17.066406 L 12.882812 15.539062 C 12.972656 15.460938 13.09375 15.460938 13.183594 15.539062 L 14.457031 16.808594 C 14.546875 16.886719 14.546875 17.019531 14.457031 17.109375 C 14.425781 17.140625 14.394531 17.15625 14.351562 17.167969 L 11.714844 17.738281 C 11.6875 17.738281 11.65625 17.753906 11.625 17.753906 Z M 13.019531 15.820312 L 11.550781 17.289062 C 11.523438 17.320312 11.507812 17.363281 11.535156 17.410156 C 11.550781 17.453125 11.597656 17.46875 11.640625 17.453125 L 14.113281 16.914062 Z M 13.019531 15.820312 "/>
<path style=" stroke:none;fill-rule:nonzero;fill:rgb(93.333333%,93.333333%,93.333333%);fill-opacity:1;" d="M 24.472656 7.574219 C 23.511719 6.644531 21.972656 6.675781 21.042969 7.648438 C 20.113281 8.621094 20.144531 10.148438 21.117188 11.078125 C 21.910156 11.839844 23.109375 11.976562 24.050781 11.40625 L 22.34375 9.699219 Z M 24.472656 7.574219 "/>
<path style=" stroke:none;fill-rule:nonzero;fill:rgb(100%,42.352941%,21.568627%);fill-opacity:1;" d="M 22.792969 11.898438 C 21.371094 11.898438 20.21875 10.746094 20.21875 9.324219 C 20.21875 7.902344 21.371094 6.75 22.792969 6.75 C 23.453125 6.75 24.097656 7.003906 24.574219 7.46875 C 24.605469 7.5 24.621094 7.527344 24.621094 7.574219 C 24.621094 7.617188 24.605469 7.648438 24.574219 7.679688 L 22.554688 9.699219 L 24.140625 11.285156 C 24.203125 11.347656 24.203125 11.4375 24.140625 11.496094 C 24.125 11.511719 24.125 11.511719 24.113281 11.527344 C 23.722656 11.765625 23.257812 11.898438 22.792969 11.898438 Z M 22.792969 7.0625 C 21.535156 7.0625 20.519531 8.082031 20.535156 9.339844 C 20.535156 10.597656 21.550781 11.617188 22.808594 11.601562 C 23.152344 11.601562 23.496094 11.527344 23.8125 11.359375 L 22.242188 9.804688 C 22.210938 9.773438 22.195312 9.746094 22.195312 9.699219 C 22.195312 9.65625 22.210938 9.625 22.242188 9.59375 L 24.246094 7.589844 C 23.84375 7.242188 23.332031 7.0625 22.792969 7.0625 Z M 22.792969 7.0625 "/>
<path style=" stroke:none;fill-rule:nonzero;fill:rgb(93.333333%,93.333333%,93.333333%);fill-opacity:1;" d="M 24.515625 7.617188 L 24.484375 7.589844 L 22.34375 9.699219 L 24.035156 11.390625 C 24.203125 11.285156 24.367188 11.167969 24.5 11.03125 C 25.460938 10.089844 25.460938 8.5625 24.515625 7.617188 Z M 24.515625 7.617188 "/>
<path style=" stroke:none;fill-rule:nonzero;fill:rgb(100%,42.352941%,21.568627%);fill-opacity:1;" d="M 24.050781 11.554688 C 24.007812 11.554688 23.976562 11.539062 23.945312 11.511719 L 22.242188 9.804688 C 22.210938 9.773438 22.195312 9.742188 22.195312 9.699219 C 22.195312 9.652344 22.210938 9.625 22.242188 9.59375 L 24.367188 7.46875 C 24.425781 7.410156 24.515625 7.410156 24.574219 7.46875 L 24.621094 7.5 C 25.625 8.5 25.625 10.117188 24.636719 11.136719 C 24.484375 11.285156 24.320312 11.421875 24.140625 11.527344 C 24.097656 11.539062 24.066406 11.554688 24.050781 11.554688 Z M 22.554688 9.699219 L 24.066406 11.210938 C 24.1875 11.136719 24.304688 11.03125 24.394531 10.941406 C 25.25 10.089844 25.292969 8.695312 24.472656 7.796875 Z M 22.554688 9.699219 "/>
<path style=" stroke:none;fill-rule:nonzero;fill:rgb(93.333333%,93.333333%,93.333333%);fill-opacity:1;" d="M 21.386719 11.347656 C 21.027344 10.988281 20.445312 10.988281 20.085938 11.347656 L 14.441406 16.988281 L 15.382812 17.933594 L 21.355469 12.695312 C 21.746094 12.363281 21.777344 11.78125 21.445312 11.390625 C 21.417969 11.375 21.402344 11.359375 21.386719 11.347656 Z M 21.386719 11.347656 "/>
<path style=" stroke:none;fill-rule:nonzero;fill:rgb(100%,42.352941%,21.568627%);fill-opacity:1;" d="M 15.367188 18.082031 C 15.324219 18.082031 15.292969 18.066406 15.265625 18.039062 L 14.320312 17.09375 C 14.261719 17.035156 14.261719 16.945312 14.320312 16.886719 L 19.964844 11.242188 C 20.382812 10.820312 21.058594 10.820312 21.476562 11.242188 C 21.894531 11.660156 21.894531 12.335938 21.476562 12.753906 C 21.460938 12.769531 21.445312 12.78125 21.433594 12.796875 L 15.457031 18.039062 C 15.445312 18.066406 15.414062 18.082031 15.367188 18.082031 Z M 14.648438 16.988281 L 15.382812 17.722656 L 21.253906 12.574219 C 21.582031 12.304688 21.613281 11.808594 21.34375 11.480469 C 21.074219 11.152344 20.578125 11.121094 20.25 11.390625 C 20.234375 11.40625 20.21875 11.421875 20.191406 11.4375 Z M 14.648438 16.988281 "/>
<path style=" stroke:none;fill-rule:nonzero;fill:rgb(93.333333%,93.333333%,93.333333%);fill-opacity:1;" d="M 10.113281 23.414062 C 10.054688 23.441406 10.023438 23.503906 10.039062 23.5625 L 10.292969 24.640625 C 10.355469 24.789062 10.265625 24.96875 10.097656 25.015625 C 9.980469 25.058594 9.84375 25.015625 9.769531 24.925781 L 8.125 23.292969 L 13.496094 17.917969 L 15.355469 17.949219 L 16.613281 19.207031 C 16.3125 19.460938 14.5 21.210938 10.113281 23.414062 Z M 10.113281 23.414062 "/>
<path style=" stroke:none;fill-rule:nonzero;fill:rgb(100%,42.352941%,21.568627%);fill-opacity:1;" d="M 9.996094 25.164062 C 9.875 25.164062 9.753906 25.117188 9.679688 25.027344 L 8.046875 23.398438 C 8.019531 23.367188 8.003906 23.335938 8.003906 23.292969 C 8.003906 23.246094 8.019531 23.21875 8.046875 23.1875 L 13.421875 17.8125 C 13.453125 17.785156 13.496094 17.769531 13.527344 17.769531 L 15.382812 17.796875 C 15.429688 17.796875 15.457031 17.8125 15.488281 17.84375 L 16.746094 19.101562 C 16.777344 19.128906 16.792969 19.175781 16.792969 19.21875 C 16.792969 19.265625 16.777344 19.296875 16.730469 19.324219 L 16.625 19.414062 C 15.039062 20.808594 12.882812 22.199219 10.203125 23.53125 L 10.457031 24.59375 C 10.503906 24.789062 10.414062 25 10.234375 25.105469 C 10.144531 25.148438 10.070312 25.164062 9.996094 25.164062 Z M 8.347656 23.292969 L 9.890625 24.820312 C 9.933594 24.894531 10.023438 24.925781 10.097656 24.878906 C 10.175781 24.835938 10.203125 24.746094 10.160156 24.667969 L 9.90625 23.59375 C 9.875 23.457031 9.933594 23.335938 10.054688 23.277344 C 12.703125 21.945312 14.84375 20.566406 16.417969 19.207031 L 15.308594 18.097656 L 13.585938 18.066406 Z M 8.347656 23.292969 "/>
<path style=" stroke:none;fill-rule:nonzero;fill:rgb(93.333333%,93.333333%,93.333333%);fill-opacity:1;" d="M 6.851562 24.582031 L 8.136719 23.292969 L 10.054688 25.207031 L 7 25 C 6.867188 24.984375 6.777344 24.863281 6.789062 24.730469 C 6.789062 24.667969 6.804688 24.609375 6.851562 24.582031 Z M 6.851562 24.582031 "/>
<path style=" stroke:none;fill-rule:nonzero;fill:rgb(100%,42.352941%,21.568627%);fill-opacity:1;" d="M 10.054688 25.34375 L 6.984375 25.132812 C 6.761719 25.117188 6.609375 24.925781 6.625 24.699219 C 6.640625 24.609375 6.671875 24.519531 6.746094 24.460938 L 8.035156 23.171875 C 8.09375 23.113281 8.183594 23.113281 8.242188 23.171875 L 10.160156 25.089844 C 10.203125 25.132812 10.21875 25.195312 10.1875 25.253906 C 10.160156 25.3125 10.113281 25.34375 10.054688 25.34375 Z M 8.136719 23.503906 L 6.957031 24.683594 C 6.910156 24.714844 6.910156 24.789062 6.957031 24.820312 C 6.96875 24.835938 6.984375 24.851562 7.015625 24.851562 L 9.664062 25.027344 Z M 8.136719 23.503906 "/>
<path style=" stroke:none;fill-rule:nonzero;fill:rgb(100%,42.352941%,21.568627%);fill-opacity:1;" d="M 12.972656 18.605469 C 12.882812 18.605469 12.824219 18.53125 12.824219 18.457031 C 12.824219 18.414062 12.839844 18.382812 12.867188 18.351562 L 14.320312 16.898438 C 14.382812 16.839844 14.472656 16.839844 14.53125 16.898438 L 15.472656 17.84375 C 15.519531 17.886719 15.535156 17.933594 15.519531 17.992188 C 15.503906 18.039062 15.457031 18.082031 15.398438 18.097656 L 13.003906 18.605469 C 12.988281 18.605469 12.972656 18.605469 12.972656 18.605469 Z M 14.425781 17.214844 L 13.4375 18.203125 L 15.054688 17.859375 Z M 14.425781 17.214844 "/>
<path style=" stroke:none;fill-rule:nonzero;fill:rgb(93.333333%,93.333333%,93.333333%);fill-opacity:1;" d="M 15.355469 17.949219 L 13.707031 18.308594 C 13.585938 18.335938 13.46875 18.261719 13.4375 18.144531 C 13.421875 18.066406 13.4375 17.992188 13.496094 17.933594 L 14.410156 17.019531 Z M 15.355469 17.949219 "/>
<path style=" stroke:none;fill-rule:nonzero;fill:rgb(100%,42.352941%,21.568627%);fill-opacity:1;" d="M 13.675781 18.457031 C 13.46875 18.457031 13.304688 18.292969 13.304688 18.082031 C 13.304688 17.976562 13.347656 17.886719 13.40625 17.8125 L 14.320312 16.898438 C 14.382812 16.839844 14.472656 16.839844 14.53125 16.898438 L 15.472656 17.84375 C 15.519531 17.886719 15.535156 17.933594 15.519531 17.992188 C 15.503906 18.039062 15.457031 18.082031 15.398438 18.097656 L 13.753906 18.457031 C 13.722656 18.457031 13.691406 18.457031 13.675781 18.457031 Z M 14.425781 17.214844 L 13.617188 18.023438 C 13.585938 18.054688 13.585938 18.082031 13.601562 18.113281 C 13.617188 18.144531 13.648438 18.15625 13.691406 18.15625 L 15.070312 17.859375 Z M 14.425781 17.214844 "/>
<path style=" stroke:none;fill-rule:nonzero;fill:rgb(100%,42.352941%,21.568627%);fill-opacity:1;" d="M 24.53125 9.054688 C 24.5 8.964844 24.394531 8.921875 24.304688 8.949219 C 24.214844 8.980469 24.171875 9.085938 24.203125 9.175781 C 24.203125 9.191406 24.214844 9.207031 24.214844 9.21875 C 24.304688 9.398438 24.277344 9.625 24.15625 9.789062 C 24.097656 9.863281 24.113281 9.96875 24.171875 10.027344 C 24.246094 10.089844 24.351562 10.074219 24.410156 10 C 24.636719 9.714844 24.679688 9.355469 24.53125 9.054688 Z M 24.53125 9.054688 "/>
</g>
</svg>
