<?xml version="1.0" encoding="UTF-8"?>
<svg xmlns="http://www.w3.org/2000/svg" xmlns:xlink="http://www.w3.org/1999/xlink" width="32px" height="32px" viewBox="0 0 32 32" version="1.1">
<g id="surface1">
<path style=" stroke:none;fill-rule:nonzero;fill:rgb(14.117647%,16.078431%,21.960784%);fill-opacity:1;" d="M 7.5 0 L 24.5 0 C 28.640625 0 32 3.359375 32 7.5 L 32 24.5 C 32 28.640625 28.640625 32 24.5 32 L 7.5 32 C 3.359375 32 0 28.640625 0 24.5 L 0 7.5 C 0 3.359375 3.359375 0 7.5 0 Z M 7.5 0 "/>
<path style=" stroke:none;fill-rule:nonzero;fill:rgb(20%,40.392157%,56.862745%);fill-opacity:1;" d="M 25.433594 18.585938 C 22.894531 19.109375 22.710938 18.25 22.710938 18.25 C 25.394531 14.269531 26.515625 9.214844 25.546875 7.976562 C 22.90625 4.601562 18.335938 6.199219 18.257812 6.242188 L 18.234375 6.246094 C 17.675781 6.132812 17.109375 6.074219 16.539062 6.070312 C 15.390625 6.050781 14.519531 6.371094 13.855469 6.871094 C 13.855469 6.871094 5.699219 3.511719 6.082031 11.097656 C 6.160156 12.710938 8.390625 23.3125 11.054688 20.105469 C 12.035156 18.925781 12.976562 17.933594 12.976562 17.933594 C 13.441406 18.246094 14.003906 18.402344 14.589844 18.347656 L 14.632812 18.308594 C 14.621094 18.460938 14.628906 18.613281 14.652344 18.761719 C 13.96875 19.53125 14.167969 19.664062 12.796875 19.945312 C 11.410156 20.230469 12.226562 20.742188 12.757812 20.875 C 13.402344 21.035156 14.894531 21.265625 15.902344 19.851562 L 15.863281 20.015625 C 16.132812 20.230469 16.320312 21.414062 16.289062 22.488281 C 16.257812 23.5625 16.238281 24.300781 16.449219 24.875 C 16.660156 25.453125 16.871094 26.746094 18.671875 26.371094 C 20.175781 26.046875 20.957031 25.210938 21.066406 23.816406 C 21.144531 22.824219 21.316406 22.96875 21.328125 22.085938 L 21.46875 21.664062 C 21.632812 20.320312 21.496094 19.886719 22.425781 20.089844 L 22.648438 20.109375 C 23.332031 20.140625 24.226562 20 24.75 19.753906 C 25.878906 19.230469 26.550781 18.355469 25.4375 18.585938 Z M 25.433594 18.585938 "/>
<path style="fill:none;stroke-width:5.034;stroke-linecap:round;stroke-linejoin:round;stroke:rgb(100%,100%,100%);stroke-opacity:1;stroke-miterlimit:4;" d="M 146.0625 48.59375 C 143.8125 49.3125 182.375 34.5 204.3125 62.5 C 212.03125 72.40625 203.0625 112.8125 181.59375 144.6875 M 128.09375 153.78125 C 127.53125 173.78125 128.25 193.9375 130.1875 198.78125 C 132.15625 203.625 136.34375 213.1875 150.78125 210.125 C 162.8125 207.53125 167.1875 202.53125 169.09375 191.5 L 173.5625 156.21875 Z M 110.8125 53.46875 C 110.8125 53.46875 45.53125 26.78125 48.5625 87.4375 C 49.21875 100.375 67.0625 185.1875 88.375 159.53125 C 96.15625 150.15625 103.1875 142.8125 103.1875 142.8125 Z M 110.8125 53.46875 " transform="matrix(0.125,0,0,0.125,0,0)"/>
<path style="fill:none;stroke-width:5.034;stroke-linecap:round;stroke-linejoin:bevel;stroke:rgb(100%,100%,100%);stroke-opacity:1;stroke-miterlimit:4;" d="M 181.625 144.65625 C 181.625 144.65625 183.03125 151.5625 203.40625 147.34375 C 212.3125 145.5 206.96875 152.5 197.9375 156.6875 C 190.5 160.15625 173.90625 161.03125 173.625 156.28125 C 172.90625 144 182.375 147.75 181.6875 144.65625 C 181.0625 141.90625 176.84375 139.1875 174.0625 132.40625 C 171.59375 126.5 140.59375 81.15625 182.65625 87.875 C 184.1875 87.5625 171.6875 47.78125 132.3125 47.21875 C 92.9375 46.65625 94.1875 95.625 94.1875 95.625 " transform="matrix(0.125,0,0,0.125,0,0)"/>
<path style="fill:none;stroke-width:5.034;stroke-linecap:butt;stroke-linejoin:round;stroke:rgb(100%,100%,100%);stroke-opacity:1;stroke-miterlimit:4;" d="M 117.09375 148.875 C 111.59375 155 113.21875 156.0625 102.25 158.34375 C 91.15625 160.625 97.6875 164.6875 101.90625 165.75 C 107.09375 167.0625 119.03125 168.875 127.09375 157.59375 C 129.5625 154.125 127.09375 148.65625 123.71875 147.25 C 122.0625 146.59375 119.90625 145.75 117.09375 148.875 Z M 117.09375 148.875 " transform="matrix(0.125,0,0,0.125,0,0)"/>
<path style="fill:none;stroke-width:5.034;stroke-linecap:round;stroke-linejoin:round;stroke:rgb(100%,100%,100%);stroke-opacity:1;stroke-miterlimit:4;" d="M 116.71875 148.75 C 116.15625 145.15625 117.90625 140.875 119.78125 135.84375 C 122.5625 128.34375 129.03125 120.8125 123.84375 96.9375 C 120 79.125 94.1875 93.21875 94.1875 95.625 C 94.1875 98.03125 95.34375 107.875 93.75 119.28125 C 91.6875 134.21875 103.25 146.8125 116.59375 145.53125 " transform="matrix(0.125,0,0,0.125,0,0)"/>
<path style="fill-rule:nonzero;fill:rgb(100%,100%,100%);fill-opacity:1;stroke-width:1.68;stroke-linecap:butt;stroke-linejoin:miter;stroke:rgb(100%,100%,100%);stroke-opacity:1;stroke-miterlimit:4;" d="M 110.5625 95.28125 C 110.46875 96.09375 112.09375 98.28125 114.21875 98.59375 C 116.3125 98.875 118.125 97.15625 118.25 96.34375 C 118.375 95.5 116.75 94.59375 114.625 94.3125 C 112.5 94.03125 110.6875 94.46875 110.5625 95.28125 Z M 110.5625 95.28125 " transform="matrix(0.125,0,0,0.125,0,0)"/>
<path style="fill-rule:nonzero;fill:rgb(100%,100%,100%);fill-opacity:1;stroke-width:0.837;stroke-linecap:butt;stroke-linejoin:miter;stroke:rgb(100%,100%,100%);stroke-opacity:1;stroke-miterlimit:4;" d="M 175 93.59375 C 175.125 94.40625 173.5 96.625 171.375 96.90625 C 169.28125 97.21875 167.4375 95.5 167.34375 94.65625 C 167.21875 93.84375 168.84375 92.9375 170.96875 92.625 C 173.09375 92.34375 174.90625 92.78125 175 93.59375 Z M 175 93.59375 " transform="matrix(0.125,0,0,0.125,0,0)"/>
<path style="fill:none;stroke-width:5.034;stroke-linecap:round;stroke-linejoin:round;stroke:rgb(100%,100%,100%);stroke-opacity:1;stroke-miterlimit:4;" d="M 182.5625 87.875 C 182.9375 94.34375 181.1875 98.75 180.96875 105.625 C 180.625 115.625 185.71875 127.09375 178.0625 138.53125 " transform="matrix(0.125,0,0,0.125,0,0)"/>
</g>
</svg>
