<?xml version="1.0" encoding="UTF-8"?>
<svg xmlns="http://www.w3.org/2000/svg" xmlns:xlink="http://www.w3.org/1999/xlink" width="32px" height="32px" viewBox="0 0 32 32" version="1.1">
<defs>
<linearGradient id="linear0" gradientUnits="userSpaceOnUse" x1="47.22" y1="46.896" x2="146.333" y2="145.02" gradientTransform="matrix(0.125,0,0,0.125,0,0)">
<stop offset="0" style="stop-color:rgb(21.960784%,49.411765%,72.156863%);stop-opacity:1;"/>
<stop offset="1" style="stop-color:rgb(21.176471%,41.176471%,58.039216%);stop-opacity:1;"/>
</linearGradient>
<linearGradient id="linear1" gradientUnits="userSpaceOnUse" x1="108.056" y1="109.905" x2="214.492" y2="210.522" gradientTransform="matrix(0.125,0,0,0.125,0,0)">
<stop offset="0" style="stop-color:rgb(100%,87.843137%,32.156863%);stop-opacity:1;"/>
<stop offset="1" style="stop-color:rgb(100%,76.470588%,19.215686%);stop-opacity:1;"/>
</linearGradient>
</defs>
<g id="surface1">
<path style=" stroke:none;fill-rule:nonzero;fill:rgb(14.117647%,16.078431%,21.960784%);fill-opacity:1;" d="M 7.5 0 L 24.5 0 C 28.640625 0 32 3.359375 32 7.5 L 32 24.5 C 32 28.640625 28.640625 32 24.5 32 L 7.5 32 C 3.359375 32 0 28.640625 0 24.5 L 0 7.5 C 0 3.359375 3.359375 0 7.5 0 Z M 7.5 0 "/>
<path style=" stroke:none;fill-rule:nonzero;fill:url(#linear0);" d="M 15.910156 3.625 C 9.5625 3.625 9.960938 6.378906 9.960938 6.378906 L 9.964844 9.230469 L 16.023438 9.230469 L 16.023438 10.085938 L 7.5625 10.085938 C 7.5625 10.085938 3.5 9.625 3.5 16.027344 C 3.5 22.429688 7.042969 22.203125 7.042969 22.203125 L 9.160156 22.203125 L 9.160156 19.234375 C 9.160156 19.234375 9.046875 15.6875 12.648438 15.6875 L 18.65625 15.6875 C 18.65625 15.6875 22.03125 15.742188 22.03125 12.425781 L 22.03125 6.941406 C 22.03125 6.941406 22.542969 3.625 15.910156 3.625 Z M 12.570312 5.542969 C 13.171875 5.542969 13.660156 6.03125 13.660156 6.632812 C 13.660156 7.234375 13.171875 7.722656 12.570312 7.722656 C 11.96875 7.722656 11.480469 7.234375 11.480469 6.632812 C 11.480469 6.03125 11.96875 5.542969 12.570312 5.542969 Z M 12.570312 5.542969 "/>
<path style=" stroke:none;fill-rule:nonzero;fill:url(#linear1);" d="M 16.089844 28.496094 C 22.4375 28.496094 22.039062 25.742188 22.039062 25.742188 L 22.035156 22.890625 L 15.976562 22.890625 L 15.976562 22.035156 L 24.4375 22.035156 C 24.4375 22.035156 28.5 22.496094 28.5 16.09375 C 28.5 9.6875 24.957031 9.914062 24.957031 9.914062 L 22.839844 9.914062 L 22.839844 12.886719 C 22.839844 12.886719 22.953125 16.429688 19.351562 16.429688 L 13.34375 16.429688 C 13.34375 16.429688 9.96875 16.378906 9.96875 19.691406 L 9.96875 25.175781 C 9.96875 25.175781 9.457031 28.496094 16.089844 28.496094 Z M 19.429688 26.578125 C 18.828125 26.578125 18.339844 26.089844 18.339844 25.488281 C 18.339844 24.886719 18.828125 24.398438 19.429688 24.398438 C 20.03125 24.398438 20.519531 24.886719 20.519531 25.488281 C 20.519531 26.089844 20.03125 26.578125 19.429688 26.578125 Z M 19.429688 26.578125 "/>
</g>
</svg>
