<?xml version="1.0" encoding="UTF-8"?>
<svg xmlns="http://www.w3.org/2000/svg" xmlns:xlink="http://www.w3.org/1999/xlink" width="32px" height="32px" viewBox="0 0 32 32" version="1.1">
<g id="surface1">
<path style=" stroke:none;fill-rule:nonzero;fill:rgb(14.117647%,16.078431%,21.960784%);fill-opacity:1;" d="M 7.5 0 L 24.5 0 C 28.640625 0 32 3.359375 32 7.5 L 32 24.5 C 32 28.640625 28.640625 32 24.5 32 L 7.5 32 C 3.359375 32 0 28.640625 0 24.5 L 0 7.5 C 0 3.359375 3.359375 0 7.5 0 Z M 7.5 0 "/>
<path style=" stroke:none;fill-rule:nonzero;fill:rgb(0%,84.705882%,100%);fill-opacity:1;" d="M 16 18.367188 C 17.289062 18.367188 18.332031 17.324219 18.332031 16.035156 C 18.332031 14.75 17.289062 13.703125 16 13.703125 C 14.710938 13.703125 13.667969 14.75 13.667969 16.035156 C 13.667969 17.324219 14.710938 18.367188 16 18.367188 Z M 16 18.367188 "/>
<path style="fill:none;stroke-width:8.911;stroke-linecap:butt;stroke-linejoin:miter;stroke:rgb(0%,84.705882%,100%);stroke-opacity:1;stroke-miterlimit:4;" d="M 128 90.375 C 153.0625 90.375 176.3125 93.96875 193.875 100 C 215 107.28125 228 118.3125 228 128.28125 C 228 138.71875 214.21875 150.4375 191.53125 157.9375 C 174.375 163.625 151.78125 166.59375 128 166.59375 C 103.625 166.59375 80.53125 163.8125 63.1875 157.875 C 41.21875 150.375 28 138.5 28 128.28125 C 28 118.375 40.40625 107.4375 61.25 100.1875 C 78.875 94.03125 102.71875 90.375 128 90.375 Z M 128 90.375 " transform="matrix(0.125,0,0,0.125,0,0)"/>
<path style="fill:none;stroke-width:8.911;stroke-linecap:butt;stroke-linejoin:miter;stroke:rgb(0%,84.705882%,100%);stroke-opacity:1;stroke-miterlimit:4;" d="M 94.96875 109.4375 C 107.5 87.75 122.21875 69.375 136.21875 57.1875 C 153.09375 42.53125 169.15625 36.78125 177.78125 41.75 C 186.8125 46.96875 190.09375 64.75 185.25 88.15625 C 181.625 105.875 172.90625 126.9375 161.03125 147.53125 C 148.84375 168.65625 134.90625 187.25 121.09375 199.3125 C 103.625 214.59375 86.71875 220.125 77.875 215 C 69.3125 210.0625 66.03125 193.84375 70.125 172.15625 C 73.625 153.84375 82.34375 131.34375 94.96875 109.4375 Z M 94.96875 109.4375 " transform="matrix(0.125,0,0,0.125,0,0)"/>
<path style="fill:none;stroke-width:8.911;stroke-linecap:butt;stroke-linejoin:miter;stroke:rgb(0%,84.705882%,100%);stroke-opacity:1;stroke-miterlimit:4;" d="M 95 147.5625 C 82.46875 125.90625 73.90625 103.96875 70.34375 85.75 C 66.0625 63.8125 69.09375 47.03125 77.75 42.03125 C 86.75 36.8125 103.78125 42.875 121.6875 58.75 C 135.1875 70.75 149.0625 88.8125 161 109.375 C 173.21875 130.46875 182.34375 151.84375 185.90625 169.84375 C 190.4375 192.59375 186.78125 210 177.9375 215.125 C 169.375 220.09375 153.6875 214.8125 136.9375 200.4375 C 122.8125 188.25 107.6875 169.46875 95 147.5625 Z M 95 147.5625 " transform="matrix(0.125,0,0,0.125,0,0)"/>
</g>
</svg>
