<?xml version="1.0" encoding="UTF-8"?>
<svg xmlns="http://www.w3.org/2000/svg" xmlns:xlink="http://www.w3.org/1999/xlink" width="32px" height="32px" viewBox="0 0 32 32" version="1.1">
<defs>
<clipPath id="clip1">
  <path d="M 3.5 15 L 28.5 15 L 28.5 27 L 3.5 27 Z M 3.5 15 "/>
</clipPath>
<clipPath id="clip2">
  <path d="M 3.5 13 L 28.5 13 L 28.5 25 L 3.5 25 Z M 3.5 13 "/>
</clipPath>
<clipPath id="clip3">
  <path d="M 3.5 11 L 28.5 11 L 28.5 23 L 3.5 23 Z M 3.5 11 "/>
</clipPath>
<clipPath id="clip4">
  <path d="M 3.5 9 L 28.5 9 L 28.5 21 L 3.5 21 Z M 3.5 9 "/>
</clipPath>
<clipPath id="clip5">
  <path d="M 3.5 7 L 28.5 7 L 28.5 19 L 3.5 19 Z M 3.5 7 "/>
</clipPath>
<clipPath id="clip6">
  <path d="M 3.5 5 L 28.5 5 L 28.5 16 L 3.5 16 Z M 3.5 5 "/>
</clipPath>
</defs>
<g id="surface1">
<path style=" stroke:none;fill-rule:nonzero;fill:rgb(14.117647%,16.078431%,21.960784%);fill-opacity:1;" d="M 7.5 0 L 24.5 0 C 28.640625 0 32 3.359375 32 7.5 L 32 24.5 C 32 28.640625 28.640625 32 24.5 32 L 7.5 32 C 3.359375 32 0 28.640625 0 24.5 L 0 7.5 C 0 3.359375 3.359375 0 7.5 0 Z M 7.5 0 "/>
<g clip-path="url(#clip1)" clip-rule="nonzero">
<path style=" stroke:none;fill-rule:nonzero;fill:rgb(64.313725%,11.764706%,6.666667%);fill-opacity:1;" d="M 27.519531 21.808594 C 26.1875 22.503906 19.277344 25.34375 17.804688 26.113281 C 16.332031 26.878906 15.515625 26.871094 14.351562 26.316406 C 13.191406 25.761719 5.835938 22.789062 4.511719 22.15625 C 3.847656 21.839844 3.5 21.574219 3.5 21.320312 L 3.5 18.796875 C 3.5 18.796875 13.074219 16.710938 14.621094 16.15625 C 16.167969 15.601562 16.703125 15.582031 18.019531 16.0625 C 19.335938 16.542969 27.199219 17.964844 28.5 18.441406 L 28.5 20.933594 C 28.5 21.183594 28.199219 21.460938 27.523438 21.808594 Z M 27.519531 21.808594 "/>
</g>
<g clip-path="url(#clip2)" clip-rule="nonzero">
<path style=" stroke:none;fill-rule:nonzero;fill:rgb(84.705882%,17.254902%,12.54902%);fill-opacity:1;" d="M 27.519531 19.28125 C 26.1875 19.976562 19.277344 22.816406 17.804688 23.585938 C 16.332031 24.351562 15.515625 24.34375 14.351562 23.789062 C 13.191406 23.234375 5.835938 20.261719 4.511719 19.628906 C 3.1875 18.996094 3.160156 18.558594 4.460938 18.050781 L 14.621094 14.117188 C 16.167969 13.5625 16.703125 13.542969 18.019531 14.023438 C 19.335938 14.503906 26.203125 17.238281 27.503906 17.722656 C 28.800781 18.207031 28.851562 18.589844 27.519531 19.289062 Z M 27.519531 19.28125 "/>
</g>
<g clip-path="url(#clip3)" clip-rule="nonzero">
<path style=" stroke:none;fill-rule:nonzero;fill:rgb(64.313725%,11.764706%,6.666667%);fill-opacity:1;" d="M 27.519531 17.6875 C 26.1875 18.382812 19.277344 21.226562 17.804688 21.992188 C 16.332031 22.757812 15.515625 22.75 14.351562 22.195312 C 13.191406 21.640625 5.835938 18.667969 4.511719 18.035156 C 3.847656 17.71875 3.5 17.453125 3.5 17.199219 L 3.5 14.675781 C 3.5 14.675781 13.074219 12.589844 14.621094 12.035156 C 16.167969 11.480469 16.703125 11.460938 18.019531 11.941406 C 19.335938 12.425781 27.199219 13.84375 28.5 14.320312 L 28.5 16.8125 C 28.5 17.0625 28.199219 17.339844 27.523438 17.6875 Z M 27.519531 17.6875 "/>
</g>
<g clip-path="url(#clip4)" clip-rule="nonzero">
<path style=" stroke:none;fill-rule:nonzero;fill:rgb(84.705882%,17.254902%,12.54902%);fill-opacity:1;" d="M 27.519531 15.160156 C 26.1875 15.855469 19.277344 18.699219 17.804688 19.464844 C 16.332031 20.230469 15.515625 20.222656 14.351562 19.667969 C 13.191406 19.113281 5.835938 16.144531 4.511719 15.507812 C 3.1875 14.875 3.160156 14.441406 4.460938 13.929688 L 14.621094 9.996094 C 16.167969 9.441406 16.703125 9.421875 18.019531 9.902344 C 19.335938 10.386719 26.203125 13.121094 27.503906 13.59375 C 28.804688 14.070312 28.855469 14.464844 27.519531 15.160156 Z M 27.519531 15.160156 "/>
</g>
<g clip-path="url(#clip5)" clip-rule="nonzero">
<path style=" stroke:none;fill-rule:nonzero;fill:rgb(64.313725%,11.764706%,6.666667%);fill-opacity:1;" d="M 27.519531 13.414062 C 26.1875 14.109375 19.277344 16.949219 17.804688 17.71875 C 16.332031 18.484375 15.515625 18.476562 14.351562 17.921875 C 13.191406 17.367188 5.835938 14.398438 4.511719 13.761719 C 3.847656 13.445312 3.5 13.179688 3.5 12.929688 L 3.5 10.398438 C 3.5 10.398438 13.074219 8.316406 14.621094 7.761719 C 16.167969 7.207031 16.703125 7.1875 18.019531 7.667969 C 19.335938 8.148438 27.199219 9.570312 28.5 10.046875 L 28.5 12.539062 C 28.5 12.789062 28.199219 13.066406 27.523438 13.414062 Z M 27.519531 13.414062 "/>
</g>
<g clip-path="url(#clip6)" clip-rule="nonzero">
<path style=" stroke:none;fill-rule:nonzero;fill:rgb(84.705882%,17.254902%,12.54902%);fill-opacity:1;" d="M 27.519531 10.886719 C 26.1875 11.582031 19.277344 14.421875 17.804688 15.191406 C 16.332031 15.957031 15.515625 15.949219 14.351562 15.394531 C 13.191406 14.839844 5.835938 11.867188 4.511719 11.234375 C 3.1875 10.601562 3.160156 10.164062 4.460938 9.65625 L 14.621094 5.722656 C 16.167969 5.167969 16.703125 5.148438 18.019531 5.628906 C 19.335938 6.113281 26.203125 8.847656 27.503906 9.320312 C 28.804688 9.796875 28.855469 10.191406 27.519531 10.886719 Z M 27.519531 10.886719 "/>
</g>
<path style=" stroke:none;fill-rule:nonzero;fill:rgb(100%,100%,100%);fill-opacity:1;" d="M 16.625 9.84375 L 15.839844 8.542969 L 13.339844 8.316406 L 15.207031 7.644531 L 14.644531 6.609375 L 16.394531 7.292969 L 18.039062 6.753906 L 17.59375 7.820312 L 19.273438 8.449219 L 17.109375 8.675781 Z M 12.453125 12.4375 L 18.246094 11.546875 L 16.496094 14.113281 Z M 12.453125 12.4375 "/>
<path style=" stroke:none;fill-rule:nonzero;fill:rgb(100%,100%,100%);fill-opacity:1;" d="M 10.890625 11.503906 C 12.601562 11.503906 13.988281 10.964844 13.988281 10.300781 C 13.988281 9.640625 12.601562 9.101562 10.890625 9.101562 C 9.179688 9.101562 7.792969 9.640625 7.792969 10.300781 C 7.792969 10.964844 9.179688 11.503906 10.890625 11.503906 Z M 10.890625 11.503906 "/>
<path style=" stroke:none;fill-rule:nonzero;fill:rgb(47.843137%,4.705882%,0%);fill-opacity:1;" d="M 25.265625 10.125 L 21.835938 11.480469 L 21.835938 8.769531 Z M 25.265625 10.125 "/>
<path style=" stroke:none;fill-rule:nonzero;fill:rgb(67.843137%,12.941176%,8.235294%);fill-opacity:1;" d="M 21.839844 11.480469 L 21.46875 11.625 L 18.042969 10.273438 L 21.835938 8.773438 Z M 21.839844 11.480469 "/>
</g>
</svg>
