<?xml version="1.0" encoding="UTF-8"?>
<svg xmlns="http://www.w3.org/2000/svg" xmlns:xlink="http://www.w3.org/1999/xlink" width="32px" height="32px" viewBox="0 0 32 32" version="1.1">
<defs>
<clipPath id="clip1">
  <path d="M 7.5 0 L 24.5 0 C 28.640625 0 32 3.359375 32 7.5 L 32 24.5 C 32 28.640625 28.640625 32 24.5 32 L 7.5 32 C 3.359375 32 0 28.640625 0 24.5 L 0 7.5 C 0 3.359375 3.359375 0 7.5 0 Z M 7.5 0 "/>
</clipPath>
<linearGradient id="linear0" gradientUnits="userSpaceOnUse" x1="147.614" y1="5.2389" x2="147.614" y2="241.763" gradientTransform="matrix(0.125,0,0,0.125,0,0)">
<stop offset="0" style="stop-color:rgb(59.215686%,85.098039%,96.470588%);stop-opacity:1;"/>
<stop offset="0.920245" style="stop-color:rgb(5.882353%,50.196078%,80%);stop-opacity:1;"/>
<stop offset="1" style="stop-color:rgb(5.882353%,50.196078%,80%);stop-opacity:1;"/>
</linearGradient>
<clipPath id="clip2">
  <path d="M 19 4 L 32 4 L 32 32 L 19 32 Z M 19 4 "/>
</clipPath>
<clipPath id="clip3">
  <path d="M 7.5 0 L 24.5 0 C 28.640625 0 32 3.359375 32 7.5 L 32 24.5 C 32 28.640625 28.640625 32 24.5 32 L 7.5 32 C 3.359375 32 0 28.640625 0 24.5 L 0 7.5 C 0 3.359375 3.359375 0 7.5 0 Z M 7.5 0 "/>
</clipPath>
<clipPath id="clip4">
  <path d="M 2 6 L 22 6 L 22 13 L 2 13 Z M 2 6 "/>
</clipPath>
<clipPath id="clip5">
  <path d="M 7.5 0 L 24.5 0 C 28.640625 0 32 3.359375 32 7.5 L 32 24.5 C 32 28.640625 28.640625 32 24.5 32 L 7.5 32 C 3.359375 32 0 28.640625 0 24.5 L 0 7.5 C 0 3.359375 3.359375 0 7.5 0 Z M 7.5 0 "/>
</clipPath>
</defs>
<g id="surface1">
<g clip-path="url(#clip1)" clip-rule="nonzero">
<path style=" stroke:none;fill-rule:nonzero;fill:rgb(85.098039%,85.098039%,85.098039%);fill-opacity:1;" d="M 7.5 0 C 3.359375 0 0 3.359375 0 7.5 L 0 24.5 C 0 28.640625 3.359375 32 7.5 32 L 21.058594 32 C 20.835938 31.34375 20.660156 30.308594 20.5625 29.121094 C 20.480469 28.101562 20.449219 26.976562 20.496094 25.886719 C 20.484375 25.726562 20.476562 25.625 20.476562 25.625 C 20.476562 25.625 20.242188 24.046875 19.90625 22.753906 C 19.757812 22.175781 19.585938 21.65625 19.410156 21.355469 C 19.316406 21.199219 19.417969 20.5625 19.675781 19.617188 C 19.824219 19.875 20.457031 20.984375 20.585938 21.339844 C 20.726562 21.742188 20.757812 21.859375 20.757812 21.859375 C 20.757812 21.859375 20.410156 20.074219 19.839844 19.035156 C 19.964844 18.613281 20.113281 18.148438 20.285156 17.652344 C 20.480469 17.996094 20.929688 18.792969 21.089844 19.167969 C 21.105469 19.203125 21.121094 19.234375 21.128906 19.261719 C 21.152344 19.328125 21.171875 19.382812 21.191406 19.433594 C 21.28125 19.699219 21.304688 19.78125 21.304688 19.78125 C 21.304688 19.78125 21.269531 19.609375 21.207031 19.34375 C 21.179688 19.230469 21.148438 19.097656 21.109375 18.957031 C 20.964844 18.402344 20.75 17.683594 20.46875 17.117188 C 21.1875 13.394531 23.492188 8.515625 25.976562 5.882812 C 26.191406 5.65625 26.40625 5.445312 26.621094 5.253906 C 28.074219 3.964844 29.546875 3.53125 30.761719 4.613281 C 31.640625 5.398438 32 6.480469 32 7.726562 L 32 7.5 C 32 3.359375 28.640625 0 24.5 0 Z M 7.5 0 "/>
<path style=" stroke:none;fill-rule:nonzero;fill:url(#linear0);" d="M 7.5 0 C 3.359375 0 0 3.359375 0 7.5 L 0 24.5 C 0 28.640625 3.359375 32 7.5 32 L 21.058594 32 C 20.835938 31.34375 20.660156 30.308594 20.5625 29.121094 C 20.480469 28.101562 20.449219 26.976562 20.496094 25.886719 C 20.484375 25.726562 20.476562 25.625 20.476562 25.625 C 20.476562 25.625 20.242188 24.046875 19.90625 22.753906 C 19.757812 22.175781 19.585938 21.65625 19.410156 21.355469 C 19.316406 21.199219 19.417969 20.5625 19.675781 19.617188 C 19.824219 19.875 20.457031 20.984375 20.585938 21.339844 C 20.726562 21.742188 20.757812 21.859375 20.757812 21.859375 C 20.757812 21.859375 20.410156 20.074219 19.839844 19.035156 C 19.964844 18.613281 20.113281 18.148438 20.285156 17.652344 C 20.480469 17.996094 20.929688 18.792969 21.089844 19.167969 C 21.105469 19.203125 21.121094 19.234375 21.128906 19.261719 C 21.152344 19.328125 21.171875 19.382812 21.191406 19.433594 C 21.28125 19.699219 21.304688 19.78125 21.304688 19.78125 C 21.304688 19.78125 21.269531 19.609375 21.207031 19.34375 C 21.179688 19.230469 21.148438 19.097656 21.109375 18.957031 C 20.964844 18.402344 20.75 17.683594 20.46875 17.117188 C 21.1875 13.394531 23.492188 8.515625 25.976562 5.882812 C 26.191406 5.65625 26.40625 5.445312 26.621094 5.253906 C 28.074219 3.964844 29.546875 3.53125 30.761719 4.613281 C 31.640625 5.398438 32 6.480469 32 7.726562 L 32 7.5 C 32 3.359375 28.640625 0 24.5 0 Z M 7.5 0 "/>
</g>
<g clip-path="url(#clip2)" clip-rule="nonzero">
<g clip-path="url(#clip3)" clip-rule="nonzero">
<path style=" stroke:none;fill-rule:nonzero;fill:rgb(0%,23.137255%,34.117647%);fill-opacity:1;" d="M 30.761719 4.613281 C 29.546875 3.53125 28.074219 3.964844 26.621094 5.253906 C 26.40625 5.445312 26.191406 5.65625 25.976562 5.882812 C 23.492188 8.515625 21.1875 13.394531 20.46875 17.117188 C 20.75 17.683594 20.964844 18.402344 21.109375 18.957031 C 21.148438 19.097656 21.179688 19.230469 21.207031 19.34375 C 21.269531 19.609375 21.304688 19.78125 21.304688 19.78125 C 21.304688 19.78125 21.28125 19.699219 21.191406 19.433594 C 21.171875 19.382812 21.152344 19.328125 21.128906 19.261719 C 21.121094 19.234375 21.105469 19.203125 21.089844 19.167969 C 20.929688 18.792969 20.480469 17.996094 20.285156 17.652344 C 20.113281 18.148438 19.964844 18.613281 19.839844 19.035156 C 20.410156 20.074219 20.757812 21.859375 20.757812 21.859375 C 20.757812 21.859375 20.726562 21.742188 20.585938 21.339844 C 20.457031 20.984375 19.824219 19.875 19.675781 19.617188 C 19.417969 20.5625 19.316406 21.199219 19.410156 21.355469 C 19.585938 21.65625 19.757812 22.175781 19.90625 22.753906 C 20.242188 24.046875 20.476562 25.625 20.476562 25.625 C 20.476562 25.625 20.484375 25.726562 20.496094 25.886719 C 20.449219 26.976562 20.480469 28.101562 20.5625 29.121094 C 20.675781 30.472656 20.886719 31.628906 21.152344 32.25 L 21.335938 32.152344 C 20.941406 30.929688 20.78125 29.328125 20.851562 27.480469 C 20.957031 24.660156 21.609375 21.253906 22.808594 17.707031 C 24.839844 12.351562 27.65625 8.054688 30.234375 6 C 27.882812 8.121094 24.703125 14.980469 23.753906 17.523438 C 22.6875 20.367188 21.929688 23.035156 21.476562 25.59375 C 22.261719 23.195312 24.800781 22.164062 24.800781 22.164062 C 24.800781 22.164062 26.046875 20.632812 27.5 18.4375 C 26.628906 18.636719 25.199219 18.976562 24.71875 19.179688 C 24.011719 19.476562 23.820312 19.578125 23.820312 19.578125 C 23.820312 19.578125 26.113281 18.183594 28.078125 17.550781 C 30.78125 13.296875 33.726562 7.257812 30.761719 4.613281 "/>
</g>
</g>
<g clip-path="url(#clip4)" clip-rule="nonzero">
<g clip-path="url(#clip5)" clip-rule="nonzero">
<path style=" stroke:none;fill-rule:nonzero;fill:rgb(0%,23.137255%,34.117647%);fill-opacity:1;" d="M 3.566406 6.125 C 3.183594 6.125 2.871094 6.238281 2.632812 6.460938 C 2.394531 6.683594 2.273438 6.976562 2.273438 7.335938 C 2.273438 7.523438 2.300781 7.691406 2.363281 7.847656 C 2.421875 8.003906 2.511719 8.148438 2.636719 8.28125 C 2.761719 8.410156 3.007812 8.585938 3.378906 8.8125 C 3.832031 9.085938 4.128906 9.308594 4.273438 9.480469 C 4.414062 9.65625 4.484375 9.835938 4.484375 10.023438 C 4.484375 10.277344 4.402344 10.480469 4.226562 10.632812 C 4.054688 10.785156 3.820312 10.859375 3.53125 10.859375 C 3.230469 10.859375 2.964844 10.753906 2.734375 10.542969 C 2.507812 10.332031 2.394531 10.054688 2.390625 9.707031 L 2.25 9.707031 L 2.25 10.972656 L 2.390625 10.972656 C 2.433594 10.851562 2.496094 10.792969 2.574219 10.792969 C 2.609375 10.792969 2.699219 10.816406 2.835938 10.863281 C 3.167969 10.980469 3.445312 11.039062 3.660156 11.039062 C 4.03125 11.039062 4.347656 10.910156 4.613281 10.648438 C 4.875 10.386719 5.007812 10.074219 5.007812 9.707031 C 5.007812 9.421875 4.921875 9.167969 4.75 8.949219 C 4.574219 8.726562 4.242188 8.46875 3.738281 8.175781 C 3.308594 7.917969 3.027344 7.710938 2.898438 7.546875 C 2.769531 7.386719 2.703125 7.207031 2.703125 7.007812 C 2.703125 6.796875 2.78125 6.625 2.9375 6.496094 C 3.09375 6.371094 3.296875 6.304688 3.554688 6.304688 C 3.84375 6.304688 4.085938 6.390625 4.273438 6.5625 C 4.464844 6.730469 4.574219 6.96875 4.605469 7.269531 L 4.75 7.269531 L 4.75 6.175781 L 4.617188 6.175781 C 4.601562 6.230469 4.585938 6.265625 4.574219 6.28125 C 4.558594 6.296875 4.535156 6.304688 4.496094 6.304688 C 4.449219 6.304688 4.367188 6.289062 4.253906 6.25 C 4.003906 6.167969 3.777344 6.125 3.566406 6.125 Z M 8.1875 6.125 C 7.722656 6.125 7.296875 6.234375 6.914062 6.449219 C 6.53125 6.667969 6.226562 6.96875 6.003906 7.351562 C 5.78125 7.734375 5.667969 8.140625 5.667969 8.574219 C 5.667969 9.160156 5.863281 9.675781 6.253906 10.132812 C 6.640625 10.585938 7.109375 10.871094 7.652344 10.980469 C 7.777344 11.042969 7.953125 11.207031 8.183594 11.472656 C 8.445312 11.773438 8.667969 11.992188 8.851562 12.121094 C 9.03125 12.25 9.226562 12.34375 9.433594 12.40625 C 9.644531 12.46875 9.867188 12.5 10.109375 12.5 C 10.40625 12.5 10.667969 12.449219 10.898438 12.347656 L 10.847656 12.21875 C 10.710938 12.265625 10.570312 12.289062 10.417969 12.289062 C 10.214844 12.289062 10.003906 12.222656 9.796875 12.089844 C 9.589844 11.953125 9.332031 11.699219 9.019531 11.320312 C 8.875 11.140625 8.773438 11.023438 8.71875 10.980469 C 9.3125 10.867188 9.800781 10.582031 10.179688 10.128906 C 10.558594 9.675781 10.75 9.15625 10.75 8.574219 C 10.75 7.886719 10.503906 7.308594 10.007812 6.835938 C 9.515625 6.363281 8.90625 6.125 8.1875 6.125 Z M 11.074219 6.125 L 11.082031 6.273438 C 11.390625 6.273438 11.566406 6.363281 11.605469 6.546875 C 11.617188 6.609375 11.625 6.730469 11.625 6.902344 L 11.625 10.207031 C 11.621094 10.453125 11.585938 10.609375 11.515625 10.679688 C 11.449219 10.746094 11.332031 10.789062 11.164062 10.804688 L 11.15625 10.957031 L 14.253906 10.957031 L 14.332031 10.207031 L 14.191406 10.207031 C 14.152344 10.410156 14.058594 10.554688 13.910156 10.640625 C 13.765625 10.722656 13.503906 10.765625 13.125 10.765625 L 12.832031 10.765625 C 12.492188 10.765625 12.296875 10.644531 12.246094 10.398438 C 12.234375 10.351562 12.230469 10.300781 12.230469 10.242188 L 12.242188 6.902344 C 12.242188 6.65625 12.273438 6.492188 12.339844 6.410156 C 12.40625 6.332031 12.523438 6.285156 12.695312 6.273438 L 12.6875 6.125 Z M 8.238281 6.304688 C 8.761719 6.304688 9.191406 6.511719 9.523438 6.921875 C 9.855469 7.335938 10.019531 7.902344 10.019531 8.617188 C 10.019531 9.296875 9.855469 9.839844 9.519531 10.246094 C 9.183594 10.65625 8.742188 10.859375 8.1875 10.859375 C 7.65625 10.859375 7.226562 10.648438 6.894531 10.226562 C 6.566406 9.804688 6.402344 9.257812 6.402344 8.585938 C 6.402344 7.894531 6.566406 7.339844 6.898438 6.925781 C 7.234375 6.511719 7.679688 6.304688 8.238281 6.304688 Z M 15.359375 7.015625 C 15.28125 7.015625 15.226562 7.042969 15.183594 7.09375 C 15.136719 7.140625 15.125 7.203125 15.140625 7.277344 C 15.15625 7.351562 15.195312 7.414062 15.261719 7.464844 C 15.328125 7.519531 15.398438 7.546875 15.472656 7.546875 C 15.546875 7.546875 15.601562 7.519531 15.640625 7.464844 C 15.679688 7.414062 15.691406 7.351562 15.679688 7.277344 C 15.664062 7.203125 15.621094 7.140625 15.5625 7.09375 C 15.5 7.042969 15.429688 7.015625 15.359375 7.015625 Z M 17.398438 7.523438 C 17.273438 8.011719 16.992188 8.273438 16.566406 8.316406 L 16.570312 8.457031 L 17.070312 8.457031 L 17.058594 10.105469 C 17.0625 10.386719 17.070312 10.574219 17.089844 10.671875 C 17.140625 10.898438 17.289062 11.015625 17.542969 11.015625 C 17.910156 11.015625 18.296875 10.796875 18.699219 10.355469 L 18.578125 10.253906 C 18.285156 10.542969 18.027344 10.6875 17.804688 10.6875 C 17.667969 10.6875 17.582031 10.609375 17.550781 10.457031 C 17.539062 10.417969 17.535156 10.375 17.535156 10.324219 L 17.542969 8.457031 L 18.304688 8.457031 L 18.296875 8.234375 L 17.542969 8.234375 L 17.542969 7.523438 Z M 20.34375 8.144531 C 19.917969 8.144531 19.574219 8.347656 19.304688 8.753906 C 19.035156 9.160156 18.953125 9.609375 19.058594 10.105469 C 19.121094 10.394531 19.242188 10.621094 19.433594 10.777344 C 19.621094 10.9375 19.859375 11.015625 20.148438 11.015625 C 20.414062 11.015625 20.785156 10.949219 20.941406 10.816406 C 21.097656 10.679688 21.242188 10.464844 21.375 10.167969 L 21.269531 10.058594 C 21.054688 10.441406 20.625 10.636719 20.304688 10.636719 C 19.859375 10.636719 19.585938 10.394531 19.484375 9.917969 C 19.472656 9.855469 19.460938 9.789062 19.453125 9.722656 C 19.984375 9.640625 20.382812 9.492188 20.65625 9.28125 C 20.925781 9.070312 21.199219 8.84375 21.148438 8.609375 C 21.117188 8.464844 21.042969 8.355469 20.929688 8.273438 C 20.8125 8.1875 20.511719 8.144531 20.34375 8.144531 Z M 15.6875 8.160156 L 14.769531 8.371094 L 14.769531 8.53125 L 15.085938 8.492188 C 15.242188 8.492188 15.332031 8.5625 15.359375 8.699219 C 15.371094 8.742188 15.375 8.808594 15.378906 8.890625 L 15.367188 10.371094 C 15.367188 10.574219 15.34375 10.695312 15.296875 10.730469 C 15.25 10.765625 15.125 10.785156 14.925781 10.785156 L 14.921875 10.921875 L 16.378906 10.921875 L 16.375 10.785156 C 16.171875 10.785156 16.042969 10.769531 15.984375 10.738281 C 15.925781 10.707031 15.886719 10.652344 15.871094 10.566406 C 15.855469 10.503906 15.851562 10.398438 15.847656 10.253906 L 15.855469 8.160156 Z M 20.113281 8.4375 C 20.199219 8.4375 20.285156 8.46875 20.371094 8.535156 C 20.457031 8.601562 20.507812 8.675781 20.527344 8.757812 C 20.609375 9.152344 20.253906 9.421875 19.460938 9.574219 C 19.4375 9.289062 19.488281 9.027344 19.617188 8.792969 C 19.742188 8.554688 19.910156 8.4375 20.113281 8.4375 Z M 20.113281 8.4375 "/>
</g>
</g>
</g>
</svg>
