<?xml version="1.0" encoding="UTF-8"?>
<svg xmlns="http://www.w3.org/2000/svg" xmlns:xlink="http://www.w3.org/1999/xlink" width="32px" height="32px" viewBox="0 0 32 32" version="1.1">
<g id="surface1">
<path style=" stroke:none;fill-rule:nonzero;fill:rgb(14.117647%,16.078431%,21.960784%);fill-opacity:1;" d="M 7.5 0 L 24.5 0 C 28.640625 0 32 3.359375 32 7.5 L 32 24.5 C 32 28.640625 28.640625 32 24.5 32 L 7.5 32 C 3.359375 32 0 28.640625 0 24.5 L 0 7.5 C 0 3.359375 3.359375 0 7.5 0 Z M 7.5 0 "/>
<path style=" stroke:none;fill-rule:nonzero;fill:rgb(100%,43.529412%,0%);fill-opacity:1;" d="M 15.527344 28.625 L 11.328125 26.109375 L 11.328125 11.289062 L 5 15.058594 L 5.015625 9.441406 L 15.527344 3.25 Z M 16.472656 3.25 L 16.472656 28.625 L 20.675781 26.109375 L 20.675781 18.972656 L 23.84375 20.863281 L 23.828125 15.980469 L 20.675781 14.125 L 20.675781 11.289062 L 27 15.058594 L 26.984375 9.441406 Z M 16.472656 3.25 "/>
</g>
</svg>
