<?xml version="1.0" encoding="UTF-8"?>
<svg xmlns="http://www.w3.org/2000/svg" xmlns:xlink="http://www.w3.org/1999/xlink" width="32px" height="32px" viewBox="0 0 32 32" version="1.1">
<g id="surface1">
<path style=" stroke:none;fill-rule:nonzero;fill:rgb(0%,47.843137%,80%);fill-opacity:1;" d="M 7.5 0 L 24.5 0 C 28.640625 0 32 3.359375 32 7.5 L 32 24.5 C 32 28.640625 28.640625 32 24.5 32 L 7.5 32 C 3.359375 32 0 28.640625 0 24.5 L 0 7.5 C 0 3.359375 3.359375 0 7.5 0 Z M 7.5 0 "/>
<path style=" stroke:none;fill-rule:nonzero;fill:rgb(100%,100%,100%);fill-opacity:1;" d="M 7.078125 16.105469 L 7.066406 17.417969 L 11.230469 17.417969 L 11.230469 29.25 L 14.175781 29.25 L 14.175781 17.417969 L 18.34375 17.417969 L 18.34375 16.132812 C 18.34375 15.421875 18.328125 14.824219 18.308594 14.8125 C 18.292969 14.789062 15.757812 14.78125 12.683594 14.785156 L 7.089844 14.800781 Z M 7.078125 16.105469 "/>
<path style=" stroke:none;fill-rule:nonzero;fill:rgb(100%,100%,100%);fill-opacity:1;" d="M 25.820312 14.761719 C 26.632812 14.964844 27.253906 15.328125 27.820312 15.917969 C 28.117188 16.230469 28.554688 16.804688 28.589844 16.941406 C 28.597656 16.984375 27.207031 17.917969 26.363281 18.441406 C 26.332031 18.460938 26.210938 18.328125 26.074219 18.125 C 25.664062 17.527344 25.230469 17.269531 24.570312 17.222656 C 23.601562 17.15625 22.976562 17.664062 22.980469 18.511719 C 22.980469 18.761719 23.015625 18.910156 23.117188 19.113281 C 23.332031 19.554688 23.726562 19.816406 24.972656 20.355469 C 27.261719 21.339844 28.242188 21.992188 28.851562 22.914062 C 29.535156 23.945312 29.6875 25.59375 29.222656 26.816406 C 28.714844 28.148438 27.457031 29.050781 25.683594 29.351562 C 25.136719 29.449219 23.835938 29.433594 23.246094 29.324219 C 21.960938 29.097656 20.742188 28.460938 19.988281 27.628906 C 19.695312 27.304688 19.121094 26.457031 19.15625 26.394531 C 19.171875 26.375 19.304688 26.292969 19.453125 26.207031 C 19.59375 26.125 20.132812 25.816406 20.640625 25.523438 L 21.558594 24.988281 L 21.753906 25.273438 C 22.023438 25.683594 22.609375 26.246094 22.964844 26.4375 C 23.988281 26.972656 25.390625 26.898438 26.078125 26.277344 C 26.375 26.007812 26.496094 25.730469 26.496094 25.320312 C 26.496094 24.949219 26.449219 24.785156 26.257812 24.503906 C 26.007812 24.148438 25.5 23.851562 24.058594 23.226562 C 22.40625 22.515625 21.695312 22.074219 21.046875 21.371094 C 20.671875 20.964844 20.316406 20.316406 20.167969 19.773438 C 20.046875 19.320312 20.015625 18.1875 20.113281 17.730469 C 20.453125 16.136719 21.65625 15.023438 23.394531 14.691406 C 23.957031 14.585938 25.265625 14.625 25.820312 14.761719 Z M 25.820312 14.761719 "/>
</g>
</svg>
