<?xml version="1.0" encoding="UTF-8"?>
<svg xmlns="http://www.w3.org/2000/svg" xmlns:xlink="http://www.w3.org/1999/xlink" width="32px" height="32px" viewBox="0 0 32 32" version="1.1">
<g id="surface1">
<path style=" stroke:none;fill-rule:nonzero;fill:rgb(14.117647%,16.078431%,21.960784%);fill-opacity:1;" d="M 7.5 0 L 24.5 0 C 28.640625 0 32 3.359375 32 7.5 L 32 24.5 C 32 28.640625 28.640625 32 24.5 32 L 7.5 32 C 3.359375 32 0 28.640625 0 24.5 L 0 7.5 C 0 3.359375 3.359375 0 7.5 0 Z M 7.5 0 "/>
<path style=" stroke:none;fill-rule:nonzero;fill:rgb(14.117647%,53.72549%,79.215686%);fill-opacity:1;" d="M 4.214844 12.527344 C 4.214844 12.527344 3.621094 12.097656 4.332031 11.53125 L 5.988281 10.050781 C 5.988281 10.050781 6.460938 9.550781 6.960938 9.984375 L 22.230469 21.546875 L 22.230469 27.089844 C 22.230469 27.089844 22.222656 27.960938 21.105469 27.863281 Z M 4.214844 12.527344 "/>
<path style=" stroke:none;fill-rule:nonzero;fill:rgb(6.27451%,43.921569%,70.196078%);fill-opacity:1;" d="M 8.148438 16.097656 L 4.214844 19.675781 C 4.214844 19.675781 3.808594 19.976562 4.214844 20.515625 L 6.042969 22.175781 C 6.042969 22.175781 6.476562 22.644531 7.117188 22.113281 L 11.289062 18.949219 Z M 8.148438 16.097656 "/>
<path style=" stroke:none;fill-rule:nonzero;fill:rgb(3.137255%,46.666667%,72.54902%);fill-opacity:1;" d="M 15.058594 16.128906 L 22.277344 10.617188 L 22.230469 5.105469 C 22.230469 5.105469 21.921875 3.902344 20.894531 4.527344 L 11.289062 13.269531 Z M 15.058594 16.128906 "/>
<path style=" stroke:none;fill-rule:nonzero;fill:rgb(23.529412%,60%,83.137255%);fill-opacity:1;" d="M 21.105469 27.871094 C 21.523438 28.300781 22.03125 28.160156 22.03125 28.160156 L 27.65625 25.386719 C 28.378906 24.898438 28.277344 24.289062 28.277344 24.289062 L 28.277344 7.738281 C 28.277344 7.011719 27.53125 6.757812 27.53125 6.757812 L 22.65625 4.410156 C 21.589844 3.75 20.894531 4.527344 20.894531 4.527344 C 20.894531 4.527344 21.789062 3.878906 22.230469 5.105469 L 22.230469 26.988281 C 22.230469 27.136719 22.199219 27.285156 22.132812 27.417969 C 22.003906 27.679688 21.726562 27.921875 21.058594 27.820312 Z M 21.105469 27.871094 "/>
</g>
</svg>
